<svg id="Airport_Virus_Screening" height="512" viewBox="0 0 512 512" width="512" xmlns="http://www.w3.org/2000/svg" data-name="Airport Virus Screening"><g id="Outline"><path d="m448 0h-384a64.072 64.072 0 0 0 -64 64v288a64.081 64.081 0 0 0 56 63.482v80.518h-16c-10.578 0-10.591 16 0 16h432c10.578 0 10.591-16 0-16h-16v-80.518a64.081 64.081 0 0 0 56-63.482v-288a64.072 64.072 0 0 0 -64-64zm48 352a48.055 48.055 0 0 1 -48 48h-40c-10.578 0-10.591 16 0 16h32v80h-368v-80h272c10.578 0 10.591-16 0-16h-280a48.055 48.055 0 0 1 -48-48v-288a48.055 48.055 0 0 1 48-48h384a48.055 48.055 0 0 1 48 48z"/><path d="m448 32h-288c-10.578 0-10.591 16 0 16h288a16.019 16.019 0 0 1 16 16v288a16.019 16.019 0 0 1 -16 16h-384a16.019 16.019 0 0 1 -16-16v-288a16.019 16.019 0 0 1 16-16h32c10.578 0 10.591-16 0-16h-32a32.036 32.036 0 0 0 -32 32v288a32.036 32.036 0 0 0 32 32h384a32.036 32.036 0 0 0 32-32v-288a32.036 32.036 0 0 0 -32-32z"/><path d="m112 432a24 24 0 1 0 24 24 24.028 24.028 0 0 0 -24-24zm-8 24a8 8 0 0 1 16 0c0 10.588-16 10.575-16 0z"/><path d="m176 432a24 24 0 1 0 24 24 24.028 24.028 0 0 0 -24-24zm-8 24a8 8 0 0 1 16 0c0 10.588-16 10.575-16 0z"/><path d="m240 432a24 24 0 1 0 24 24 24.028 24.028 0 0 0 -24-24zm-8 24a8 8 0 0 1 16 0c0 10.588-16 10.575-16 0z"/><path d="m296 464h112c10.578 0 10.591-16 0-16h-112c-10.578 0-10.591 16 0 16z"/><path d="m104 96a8 8 0 0 0 -8 8v144.011c-30.747 23.129-14.151 71.989 24 71.989 38.176 0 54.733-48.871 24-71.989v-144.011a8 8 0 0 0 -8-8zm16 208c-24.356 0-33.273-32.471-11.993-44.783 7.595-4.4 2.5-4.478 3.993-147.217h16c1.486 142.354-3.595 142.825 3.993 147.217 21.249 12.294 12.407 44.783-11.993 44.783z"/><path d="m80 136c0-10.577-16-10.592-16 0s16 10.592 16 0z"/><path d="m80 168c0-10.577-16-10.592-16 0 0 10.577 16 10.592 16 0z"/><path d="m80 200c0-10.577-16-10.592-16 0 0 10.577 16 10.592 16 0z"/><path d="m80 232c0-10.577-16-10.592-16 0 0 10.577 16 10.592 16 0z"/><path d="m112 280c0 10.577 16 10.592 16 0s-16-10.592-16 0z"/><path d="m128 48c10.577 0 10.592-16 0-16-10.577 0-10.592 16 0 16z"/><path d="m376 400c-10.577 0-10.592 16 0 16s10.592-16 0-16z"/><path d="m214.231 248.215a48.676 48.676 0 0 0 -38.231 47.785v48c0 10.578 16 10.591 16 0v-48c0-14.382 9.08-28.126 26.017-32.239l55.233-13.825c10.24 39.907 67.242 39.977 77.5 0 68.417 17.123 53.163 13.36 55.44 13.874a32.773 32.773 0 0 1 25.81 32.19v48c0 10.578 16 10.591 16 0v-48a48.676 48.676 0 0 0 -38.231-47.785l-57.769-14.459v-21.439a59.885 59.885 0 0 0 13.9-20.76c16.043-4 17.812-16.634 17.967-16.864 2.592-8.669 4.607-17.338-1.341-24.175 9.093-43.836-24.194-86.518-70.526-86.518-46.4 0-79.607 42.733-70.522 86.518-7.424 8.535-2 20.477-1.383 23.6l.043.575c.067.1 2.256 12.947 17.967 16.863a59.727 59.727 0 0 0 13.895 20.714v21.486zm151.882-126.687c-18.926-7.644-31.566 14.308-54.347 14.308-22.48 0-35.041-21.839-53.889-14.277 14.831-55.282 93.374-55.27 108.236-.031zm-96.239 54.78c-13.874 7.692-21.874-16.308-10.02-18.939-1.2-4.577-2.6-8.058-3.409-14.437 3.5-4.474 6.581-6.8 9.189-6.895 12.149-.43 33.186 31.274 80 5.116 11.042-6.168 14.188-8.13 21.924 1.778-.824 6.471-2.251 10.021-3.41 14.438 11.852 2.631 3.852 26.631-10.022 18.939-.395.523-7.253 35.943-41.988 35.943-34.867 0-41.917-35.411-42.264-35.943zm66.126 46.873v16.819a24 24 0 0 1 -48 0v-16.878a58.977 58.977 0 0 0 48 .059z"/><path d="m384 311.68v32.32c0 10.578 16 10.591 16 0v-32.32c0-10.58-16-10.591-16 0z"/><path d="m224 311.68v32.32c0 10.578 16 10.591 16 0v-32.32a8 8 0 0 0 -16 0z"/></g></svg>