<?xml version="1.0"?>
<svg xmlns="http://www.w3.org/2000/svg" viewBox="0 0 512 512" width="512" height="512"><g id="Alcohol_Liquid" data-name="Alcohol Liquid"><g id="Outline"><path d="M294.177,149.334A32.054,32.054,0,0,0,264,128V96c9.588-1.19,26.134,4.4,36.246-10.548a23.961,23.961,0,0,0,2.4-22.363l-19.2-48C274.9-6.3,250.738,1.6,240,0a8,8,0,0,0-8,8c0,17.025,31.463.2,36.592,13.03l19.2,48A7.986,7.986,0,0,1,280.37,80c-141.906-1.9-145.156,4.489-148.962-5.03C104.379,2.728,94.263,17.7,176,16c10.576,0,10.592-16,0-16H119.63A23.975,23.975,0,0,0,97.006,16H72a8,8,0,0,0-8,8V64a8,8,0,0,0,8,8h40.988c3.61,8.958,3.586,9.12,4.35,10.666A49.969,49.969,0,0,1,72,112a8,8,0,0,0-8,8v32a8,8,0,0,0,8,8,96.655,96.655,0,0,0,91.051-64H184v32a32.036,32.036,0,0,0-32,32v16H128a56.063,56.063,0,0,0-56,56V456a56.063,56.063,0,0,0,56,56H264c10.576,0,10.592-16,0-16H128a40.045,40.045,0,0,1-40-40V232a40.045,40.045,0,0,1,40-40H256c10.576,0,10.592-16,0-16H168V160a16.019,16.019,0,0,1,16-16h80a16.027,16.027,0,0,1,15.091,10.666C282.616,164.637,297.707,159.321,294.177,149.334ZM80,56V32H97.019c.506,1.425-.57-1.395,9.569,24Zm0,87.607v-16.1a66.183,66.183,0,0,0,49.48-33.4c6.575,2.768,11.411,1.645,16.35,1.892A80.663,80.663,0,0,1,80,143.607ZM248,128H200V96h48Z"/><path d="M424,233.013V192c0-10.806-13.641-7.472-16-8V120a8,8,0,0,0-8-8H336a8,8,0,0,0-8,8v64c-2.168.485-16-2.7-16,8v41.013A32.057,32.057,0,0,0,288,264V504a8,8,0,0,0,8,8H440a8,8,0,0,0,8-8V264A32.057,32.057,0,0,0,424,233.013ZM344,128h48v56H344Zm-16,72h80v32H328ZM432,496H304V264a16.019,16.019,0,0,1,16-16h96a16.019,16.019,0,0,1,16,16Z"/><path d="M160,344h32a8,8,0,0,0,8-8V304h32a8,8,0,0,0,8-8V264a8,8,0,0,0-8-8H200V224a8,8,0,0,0-8-8H160a8,8,0,0,0-8,8v32H120a8,8,0,0,0-8,8v32a8,8,0,0,0,8,8h32v32A8,8,0,0,0,160,344Zm-32-56V272h32a8,8,0,0,0,8-8V232h16v32a8,8,0,0,0,8,8h32v16H192a8,8,0,0,0-8,8v32H168V296a8,8,0,0,0-8-8Z"/><path d="M408,296H392V280a8,8,0,0,0-8-8H352a8,8,0,0,0-8,8v16H328a8,8,0,0,0-8,8v32a8,8,0,0,0,8,8h16v16a8,8,0,0,0,8,8h32a8,8,0,0,0,8-8V344h16a8,8,0,0,0,8-8V304A8,8,0,0,0,408,296Zm-8,32H384a8,8,0,0,0-8,8v16H360V336a8,8,0,0,0-8-8H336V312h16a8,8,0,0,0,8-8V288h16v16a8,8,0,0,0,8,8h16Z"/><path d="M360,152c0,10.577,16,10.592,16,0C376,141.423,360,141.408,360,152Z"/><path d="M208,16c10.577,0,10.592-16,0-16C197.423,0,197.408,16,208,16Z"/><path d="M296,184c0-10.577-16-10.592-16,0C280,194.577,296,194.592,296,184Z"/><path d="M320,424v48c0,10.578,16,10.591,16,0V424C336,413.422,320,413.409,320,424Z"/><path d="M360,424v48c0,10.578,16,10.591,16,0V424C376,413.422,360,413.409,360,424Z"/><path d="M400,424v48c0,10.578,16,10.591,16,0V424C416,413.422,400,413.409,400,424Z"/></g></g></svg>
