<svg height="512" viewBox="0 0 512 512" width="512" xmlns="http://www.w3.org/2000/svg"><g id="Corona_Virus_Symptoms_Fever" data-name="Corona Virus Symptoms Fever"><g id="Outline"><path d="m505.918 165.527c9.357-39.777 7.954-75.806-3.951-101.453-9.145-19.7-23.885-31.62-41.855-34.023-17.626-33.141-57-33.262-93.883-26.51-10.4 1.9-7.535 17.653 2.881 15.738 81.678-14.949 71.425 25.834 85.49 26.346 17.792.646 27.687 14.053 32.855 25.186 10.252 22.086 11.306 55.273 2.889 91.052-9.591 40.774-30.625 83.19-60.957 123.009-13.783-6.064-24.564-14.49-32.843-25.641-6.3-8.492-19.16 1.033-12.846 9.538 10.047 13.533 23.595 24 40.3 31.186.517 36.325-1.2 37.112 1.6 40.845 81.332 108.44 38.566 171.2 62.402 171.2a8 8 0 0 0 8-8c0-58.6-9.422-107.735-56-170.653v-36.04c32.816-42.38 55.594-87.891 65.918-131.78z"/><path d="m376 222.567c-10.578 0-10.591 16 0 16 52.767 0 50.714-87.083 10.33-87.083-26.125 0-34.351 39.083-18.33 39.083a8 8 0 0 0 8-8c0-21.932 24-20.605 24 8 0 9.622-2.339 32-24 32z"/><path d="m392 384a56.063 56.063 0 0 0 -56 56v64c0 10.576 16 10.592 16 0v-64a40 40 0 0 1 80 0v64c0 10.576 16 10.592 16 0v-64a56.063 56.063 0 0 0 -56-56z"/><path d="m396.9 343.793c-22.287 9.38-53.638 20.284-84.545 23.358 20.95-30.01 14.72-6.694 15.645-63.151a8 8 0 0 0 -8-8h-60a20.023 20.023 0 0 1 -20-20v-36c0-7.376-7.426-7.914-22.205-18.135 20.018-26.611 22.205-26.5 22.205-31.3v-43.93a79.284 79.284 0 0 0 14.622 4c10.434 1.823 13.177-13.939 2.756-15.76-39.746-6.949-54.624-46.067-57.046-86.348 22.575 11.736 55.644 1.663 107.93-13.7 10.151-2.978 5.663-18.327-4.5-15.354-44.116 12.957-92.172 29.017-104.425 7.477-3.358-7.227-14.51-5.428-15.116 3.05-2.614 36.359 8.14 85.662 39.779 108.1v49.726l-24.315 31.266a8 8 0 0 0 2.123 11.724l22.192 13.654v31.53a36.04 36.04 0 0 0 36 36h52v29.052a283.855 283.855 0 0 0 -20.43 28.288 7.994 7.994 0 0 0 -3.491 5.6c-23.485 38.497-40.079 83.789-40.079 129.06a8 8 0 0 0 16 0c0-48.006 20.133-91.534 37.451-120.1 36.895-1.207 75.351-14.291 101.653-25.359 9.761-4.109 3.544-18.852-6.204-14.748z"/><path d="m297.024 108.083c-4.178 7.443-25.024 45.31-25.024 59.917a32 32 0 0 0 64 0c0-14.607-20.846-52.474-25.024-59.917a8 8 0 0 0 -13.952 0zm6.976 75.917a16.019 16.019 0 0 1 -16-16c0-5.438 7.434-22.483 16-39.106 8.565 16.618 16 33.663 16 39.106a16.019 16.019 0 0 1 -16 16z"/><path d="m144 292.116v-220.116a24.027 24.027 0 0 0 -24-24h-64a24.027 24.027 0 0 0 -24 24v220.122c-63.512 52.515-26.116 155.878 56.022 155.878 81.362 0 120.061-103.115 55.978-155.884zm-57.739 139.864c-66.868-1.573-96.694-88.092-41.456-129.58 6.065-4.557 2.036-4.387 3.2-142.4h23.995c10.578 0 10.591-16 0-16h-24v-16h40c10.578 0 10.591-16 0-16h-40v-16h24c10.578 0 10.591-16 0-16h-24c.485-2.164-2.7-16 8-16h64a8.009 8.009 0 0 1 8 8c1.2 232.538-2.889 225.825 3.195 230.4 56.473 42.417 24.03 131.235-44.934 129.58z"/><path d="m112 309.416v-125.416a8 8 0 0 0 -8-8h-32a8 8 0 0 0 -8 8v125.416c-53.95 25.649-35.183 106.584 24 106.584 59.1 0 78.016-80.9 24-106.584zm-24 90.584c-44.664 0-55.6-62.714-13.326-77.708 10.104-3.584 3.343-10.278 5.326-130.292h16c2.028 122.778-4.447 126.826 5.326 130.292 42.257 14.986 31.353 77.708-13.326 77.708z"/><path d="m8 448c0 10.577 16 10.592 16 0s-16-10.592-16 0z"/><path d="m48 456c-10.577 0-10.592 16 0 16 10.577 0 10.592-16 0-16z"/><path d="m120 464c0 10.577 16 10.592 16 0s-16-10.592-16 0z"/><path d="m80 472c0 10.577 16 10.592 16 0s-16-10.592-16 0z"/><path d="m160 440c-10.577 0-10.592 16 0 16 10.577 0 10.592-16 0-16z"/><path d="m336 24c10.577 0 10.592-16 0-16s-10.592 16 0 16z"/></g></g></svg>