<svg height="512" viewBox="0 0 512 512" width="512" xmlns="http://www.w3.org/2000/svg"><g id="Corona_Virus_Symptoms_Sore_Throat" data-name="Corona Virus Symptoms Sore Throat"><g id="Outline"><path d="m192.32 29.045c128-35.71 110.036 15.987 126.278 16.58 19.09.7 33.263 16.73 38.887 43.991 2.137 10.359 17.81 7.141 15.67-3.232-6.684-32.4-24.83-53.066-49.04-56.329-23.709-44.585-87.4-30-136.095-16.421-10.195 2.844-5.9 18.255 4.3 15.411z"/><path d="m256 384a56.064 56.064 0 0 0 -56 56v64a8 8 0 0 0 16 0v-64a40 40 0 0 1 80 0v64a8 8 0 0 0 16 0v-64a56.064 56.064 0 0 0 -56-56z"/><path d="m181.054 367.452c17.464-21.326 8.337.3 10.946-63.452a8 8 0 0 0 -8-8h-60a20.023 20.023 0 0 1 -20-20v-36c0-7.377-7.427-7.915-22.2-18.135 28.451-39.815 21.407-11.4 22.205-75.229 23.784 9.055 39.1 3.881 128 5.364 10.576 0 10.592-16 0-16h-98.436c-47.514-.832-66.358-40.379-69.222-87.47 18.5 9.6 43.786 3.834 66.377-1.95 10.257-2.626 6.286-18.121-3.968-15.5-74.165 18.985-56.326-11.346-72.032-8.507a8.078 8.078 0 0 0 -6.503 7.427c-2.605 36.457 7.886 85.5 39.779 108.133v49.69l-24.315 31.266a8 8 0 0 0 2.122 11.724l22.193 13.657v31.53a36.04 36.04 0 0 0 36 36h52v36.805c-35.837 38.789-64 97.577-64 155.2a8 8 0 0 0 16 0c0-51.062 22.826-94.165 40.7-120.091 71-1.436 110.494-20.126 125.384-29.039 76.516 105.108 34.594 157.125 57.916 157.125a8 8 0 0 0 8-8c0-58.365-8.908-99.878-57.6-164.8-10.763-14.356-18.336 22.828-121.346 28.252z"/><path d="m310.289 117.944-9.057 34.056c-37.672 1.72-48.565-4.182-51.555 5.68l-26.668 88c-3.071 10.137 12.228 14.818 15.313 4.64l24.947-82.32h44.114c10.641 0 7.906-13.337 18.368-45.944a8 8 0 1 0 -15.462-4.112z"/><path d="m390.5 246.178-11.481 17.822c-57.175.828-57.718-1.861-61.883 2.423l-31.11 32c-7.376 7.588 4.172 18.663 11.472 11.154l28.754-29.577h57.13c7.332 0 7.817-7.185 20.566-25.159 5.726-8.892-7.716-17.567-13.448-8.663z"/><path d="m449.125 155.108-24 37.292a8.012 8.012 0 0 0 6.72 12.331c7.7 0 7-6.369 30.734-40.963 5.721-8.895-7.723-17.568-13.454-8.66z"/><path d="m325.834 184c-38.58 1.732-49.423-4.2-52.417 5.68-29.446 104.812-43.665 122.32-26.288 122.32 6.339 0 3.95-1.858 65.608-64 51.84-1.226 55.764 2.778 59.916-3.669 36-59.989 48.319-65.8 40.136-73.988-81.134-78.259-59.353-82.115-86.955 13.657zm35.729 48c-52.813.818-53.787-1.849-57.941 2.423l-39.292 40.413 22.678-74.836h44.977c10.961 0 7.528-12.791 23.31-64.524l41.618 41.618z"/><path d="m407.132 224c0 10.577 16 10.592 16 0 0-10.577-16-10.592-16 0z"/><path d="m336.012 88c0-10.577-16-10.592-16 0 0 10.577 16 10.592 16 0z"/><path d="m160 40c10.577 0 10.592-16 0-16-10.577 0-10.592 16 0 16z"/><path d="m222.978 337.894a33.4 33.4 0 0 0 46.339-9.3c5.852-8.811-7.466-17.675-13.328-8.852-12.589 18.954-41.845-.1-29.08-19.317a8 8 0 0 0 -2.238-11.09c-14.199-9.435-28.187 30.965-1.693 48.559z"/></g></g></svg>