<svg height="512" viewBox="0 0 512 512" width="512" xmlns="http://www.w3.org/2000/svg"><g id="Don_t_touch_eye" data-name="Don't touch eye"><g id="Outline"><path d="m455.324 174.743a8 8 0 0 0 2.439-11.048c-1.983-3.1-19.7-25.081-50.43-47.634-8.523-6.257-18.008 6.629-9.467 12.9 48.327 35.472 46.37 52.861 57.458 45.782z"/><path d="m256.04 80c73.058 0 93.536 30.931 100.492 14.858a8 8 0 0 0 -4.164-10.52c-166.82-72.209-264.268 65.953-292.847 85.006a8 8 0 0 0 -2.221 11.094c16.857 25.293 73.617-100.438 198.74-100.438z"/><path d="m331.684 129.016c33.986 15.384 67.789 42.617 86.016 66.184 6.445 8.383 19.142-1.355 12.684-9.753-27.158-35.353-94.343-89.447-174.342-89.447-105.108 0-133.469 81.113-186.726 100.072a8 8 0 0 0 -2.964 13.2c17.2 17.151 39.183 36.328 71.813 48.511 47.9 17.886 115.3 16.34 159.071 9.495 10.453-1.635 8-17.434-2.472-15.808a395.44 395.44 0 0 1 -51.578 4.377 78.8 78.8 0 0 1 -66.4-43.631c-21.65-42.961 2.921-76.688 4.791-81.112 37.635-21.742 82.371-23.645 122.3-12.315a80.052 80.052 0 0 1 5.837 108.114 8 8 0 0 0 1.073 11.263c14.971 12.37 51.805-54.018 20.897-109.15zm-140.084 124.822c-48.252-5.719-78.1-22.545-105.407-47.695 25.248-12.991 44.786-36.321 69.419-56.692-11.47 39.604 4.694 81.602 35.988 104.387z"/><path d="m248 120a60 60 0 1 0 60 60 60.068 60.068 0 0 0 -60-60zm32 36c0 15.881-24 15.865-24 0 0-15.881 24-15.865 24 0zm-32 68a44 44 0 1 1 .419-87.989 27.913 27.913 0 0 0 -8.419 19.989c0 27.484 35.725 38.5 51.2 15.664a44.034 44.034 0 0 1 -43.2 52.336z"/><path d="m392.112 420.855c4.441 9.578 18.991 2.925 14.516-6.73l-58.16-125.46a48 48 0 1 1 87.095-40.37l24.959 53.84c4.449 9.6 18.972 2.88 14.516-6.73l-24.96-53.841a64.258 64.258 0 0 0 -58.108-37.094c-46.521 0-77.667 48.547-58.018 90.925z"/><path d="m437.868 291.313-16.822-36.292a32 32 0 0 0 -58.065 26.916l16.819 36.291a8 8 0 0 0 10.622 3.894l43.549-20.187a8 8 0 0 0 3.897-10.622zm-46.913 12.928-13.455-29.033a16 16 0 0 1 29.03-13.458l13.457 29.033z"/><path d="m408.029 352.063 38.884-18.024c9.594-4.448 2.882-18.971-6.728-14.517l-38.885 18.025c-9.6 4.453-2.873 18.965 6.729 14.516z"/><path d="m418.128 381.839c3.144 0 1.281-.07 42.243-18.768 9.593-4.447 2.882-18.97-6.728-14.516l-38.884 18.024c-7.733 3.585-5.184 15.26 3.369 15.26z"/><path d="m21.013 305.032a237.551 237.551 0 0 1 2.994-110.957c2.743-10.221-12.7-14.378-15.453-4.15a253.407 253.407 0 0 0 -3.206 118.364c2.152 10.352 17.819 7.111 15.665-3.257z"/><path d="m308.538 490.306a237.731 237.731 0 0 1 -107.26-.577c-10.3-2.408-13.951 13.174-3.636 15.582a253.619 253.619 0 0 0 114.421.6c10.319-2.329 6.809-17.929-3.525-15.605z"/><path d="m437.021 74.979c-122.535-122.533-330-90.8-409.452 65.394-4.8 9.43 9.46 16.694 14.262 7.254 41.297-81.19 123.361-131.627 214.169-131.627 132.337 0 240 107.664 240 240 0 100.264-63.4 190.9-157.757 225.53-9.935 3.647-4.427 18.663 5.514 15.02 177.757-65.242 224.097-290.739 93.264-421.571z"/><path d="m154.876 345.81-42.876 42.876-42.876-42.876c-7.479-7.476-18.8 3.823-11.314 11.314l42.876 42.876-42.876 42.876a8 8 0 0 0 11.314 11.314l42.876-42.876c44.128 42.926 42.553 45.219 48.533 45.219a8.009 8.009 0 0 0 5.657-13.657l-42.876-42.876 42.876-42.876c7.479-7.479-3.822-18.803-11.314-11.314z"/><path d="m203.479 429.182c-3.212 10.079 12.027 14.95 15.245 4.859 23.076-72.383-31.296-146.041-106.724-146.041a112.127 112.127 0 0 0 -112 112c0 90.265 101.25 142.378 174.572 92.9 8.768-5.917-.17-19.187-8.949-13.263-63.088 42.57-149.623-2.51-149.623-79.637a96.108 96.108 0 0 1 96-96c64.609 0 111.274 63.089 91.479 125.182z"/><path d="m195.2 455.467c-9.167 0-9.18 13.866 0 13.866s9.18-13.866 0-13.866z"/><path d="m384 105.067c0-9.167-13.867-9.18-13.867 0s13.867 9.179 13.867 0z"/></g></g></svg>