<svg height="512" viewBox="0 0 512 512" width="512" xmlns="http://www.w3.org/2000/svg"><g id="Don_t_touch_mask" data-name="Don't touch mask"><g id="Outline"><path d="m399.375 425.492a8.009 8.009 0 0 0 7.253-11.367l-58.16-125.46a48 48 0 1 1 87.094-40.37l24.96 53.84c4.448 9.593 18.971 2.881 14.516-6.73l-24.961-53.841a64 64 0 1 0 -116.125 53.836c60.158 125.41 55.71 130.092 65.423 130.092z"/><path d="m379.8 318.228a8 8 0 0 0 10.623 3.894c61.362-29.658 54.876-12.045 30.62-67.1-12.082-26.064-49.388-23.994-59.078 2.445a31.788 31.788 0 0 0 1.013 24.471zm12.2-65.757c14.825 0 15.1 13.273 27.984 38.312l-29.033 13.458-13.451-29.033a16.028 16.028 0 0 1 14.5-22.737z"/><path d="m408.029 352.063 38.884-18.024c9.593-4.447 2.881-18.974-6.728-14.517l-38.885 18.025c-9.595 4.453-2.881 18.97 6.729 14.516z"/><path d="m421.487 381.1 38.884-18.025c9.591-4.446 2.88-18.975-6.728-14.516l-38.885 18.024c-9.596 4.445-2.882 18.967 6.729 14.517z"/><path d="m21.013 305.032c-17.672-84.99 15.393-115.91-2.659-120.759a8 8 0 0 0 -9.8 5.652 253.423 253.423 0 0 0 -3.206 118.364c2.152 10.365 17.819 7.111 15.665-3.257z"/><path d="m201.278 489.729c-10.312-2.415-13.936 13.177-3.636 15.582a253.6 253.6 0 0 0 114.42.6 8 8 0 0 0 6.042-9.566c-4.146-18.354-33.623 12.805-116.826-6.616z"/><path d="m444.015 82.259a8 8 0 1 0 -11.749 10.862c116.568 126.093 66.04 329.661-94.022 388.409-9.805 3.6-4.559 18.715 5.512 15.02 171.32-62.879 224.428-279.974 100.259-414.291z"/><path d="m41.831 147.627c65.929-129.615 227.508-169.444 345.021-92.845a8 8 0 0 0 8.737-13.4c-125.361-81.72-297.689-39.282-368.019 98.991-4.796 9.427 9.459 16.695 14.261 7.254z"/><path d="m166.19 345.81a8 8 0 0 0 -11.314 0l-42.876 42.877-42.876-42.877c-7.479-7.478-18.8 3.824-11.314 11.314l42.877 42.876-42.877 42.876c-7.5 7.494 3.906 18.721 11.314 11.314l42.876-42.877 42.876 42.877a8 8 0 1 0 11.314-11.314l-42.877-42.876 42.877-42.876a8 8 0 0 0 0-11.314z"/><path d="m203.48 429.182c-3.212 10.077 12.029 14.952 15.244 4.859 23.076-72.382-31.295-146.041-106.724-146.041a112.127 112.127 0 0 0 -112 112c0 90.265 101.25 142.378 174.572 92.9a8 8 0 0 0 -8.949-13.263c-63.087 42.571-149.623-2.51-149.623-79.637a96.108 96.108 0 0 1 96-96c64.612 0 111.267 63.088 91.48 125.182z"/><circle cx="195.2" cy="462.4" r="6.933" transform="matrix(.383 -.924 .924 .383 -306.702 465.789)"/><circle cx="417.067" cy="65.067" r="6.933"/><path d="m256 96c-43.2 0-89.427 19.2-144 19.2-12.435 0-6.661 18.033-8 28.8h-16a32 32 0 0 0 0 64h16c.634 19.019-1.56 22.512 2.312 26.425 2.81 2.841 69.729 69.575 149.688 69.575a164.278 164.278 0 0 0 50.462-8.4c10.062-3.256 5.156-18.482-4.924-15.223a148.34 148.34 0 0 1 -45.538 7.623c-65.4 0-123.832-51.231-136-62.61v-94.319c52.671-1.681 97.413-19.071 136-19.071 38.812 0 83.032 17.381 136 19.071v44.929c0 10.576 16 10.592 16 0v-16h16c14.7 0 21.536 18.2 10.665 27.928a8 8 0 0 0 -.625 11.3c8.977 10.028 21.96-8.572 21.96-23.228a32.036 32.036 0 0 0 -32-32h-16c-1.341-10.78 4.433-28.8-8-28.8-54.413 0-100.914-19.2-144-19.2zm-152 96h-16c-21.177 0-21.15-32 0-32h16z"/><path d="m152.973 165.888c35.177-4.31 80.714-13.888 103.027-13.888 22.6 0 95.138 13.948 104.01 13.948 9.945 0 10.882-14.726.963-15.941-106.018-12.991-79.2-20.606-167.764-6.3-14.292 2.308-29.07 4.695-42.182 6.3-10.509 1.287-8.558 17.162 1.946 15.881z"/><path d="m302.676 234.59c-20.489 3.438-37.502 5.41-46.676 5.41-23.173 0-84.884-11.633-101.368-17.376-9.988-3.474-15.266 11.625-5.264 15.109 17.775 6.193 81.69 18.267 106.632 18.267 13.72 0 36.792-3.528 49.324-5.631 10.429-1.749 7.798-17.531-2.648-15.779z"/><path d="m360 184h-208c-10.576 0-10.592 16 0 16h208c10.576 0 10.592-16 0-16z"/></g></g></svg>