<?xml version="1.0"?>
<svg xmlns="http://www.w3.org/2000/svg" viewBox="0 0 512 512" width="512" height="512"><g id="Face_Shield" data-name="Face Shield"><g id="Outline"><path d="M208,389.94V444a387.631,387.631,0,0,0-56.906,54.83c-6.885,8.133,5.493,18.28,12.213,10.336C205.881,458.867,224,457.854,224,448V389.94C224,379.363,208,379.349,208,389.94Z"/><path d="M112,200c0-10.578-16-10.591-16,0v40.989c-42.256,60.794-43.489,43.36,2.24,71.671l19.287,64.307c7.123,23.769,37.787,41.624,42.162,26.389a8,8,0,0,0-5.481-9.9,31.167,31.167,0,0,1-21.354-21.087c-21.694-69.714-18.963-69.082-23.807-71.924l-25.419-14.9,26.863-37.3C113.145,244.563,111.5,244.829,112,200Z"/><path d="M85.714,142.117c13.469-11.347-20.277-15.672-27.576-87.428C85.227,70.936,115.85,65.605,171.8,49.757a8,8,0,0,0-4.362-15.395C131.217,44.623,78.9,60.953,55.53,32.165a8.006,8.006,0,0,0-14.276,4.709c-.079,2.558-1.525,63.092,33.187,104.281A8,8,0,0,0,85.714,142.117Z"/><path d="M463.745,160c2.415-52.962-13.621-115.368-64.629-121.384C370.157-17.908,290.047-.185,228.948,16.627a8,8,0,1,0,4.244,15.426C287.427,17.13,364.383-1.529,386.533,49.42c4.407,10.134,19.379-1.5,38.738,20.19,16.28,18.241,24.333,50.917,22.45,90.39H40a8,8,0,0,0-8,8v32c0,10.578,16,10.591,16,0V176h81.376A24.023,24.023,0,0,0,152,208H277.93c-5.464,9.016-11.17,31.175,2.07,31.175a8,8,0,0,0,8-8c0-24.369,20.963-29.332,32.2-15.775,13.9,16.772,12.493,72.6-29,72.6-10.578,0-10.591,16,0,16,56.233,0,61.975-69.369,43.433-96,33.87-.006,104.694.022,106.512-.029-8.677,39.559-28.715,96.618-74.728,160.133-27.769-10.99-47.542-23.167-55.993-34.552-6.319-8.506-19.15,1.044-12.848,9.537,12.653,17.043,39.736,30.648,62.424,39.679.622,68.1-1.395,66.343,1.782,70.265,39.34,48.6,33.972,58.969,44.155,58.969a8.011,8.011,0,0,0,7.025-11.815A370.815,370.815,0,0,0,376,445.181v-63.09c53.2-71.869,74.194-136.428,82.411-178.6A40.033,40.033,0,0,0,480,168C480,157.123,466.235,160.549,463.745,160ZM440,192H152c-10.588,0-10.575-16,0-16H462.629A24.041,24.041,0,0,1,440,192Z"/><path d="M192,395.01V232c0-10.578-16-10.591-16,0V395.01a63.8,63.8,0,0,1-53.475,63.129L48,470.557V264c0-10.578-16-10.591-16,0,1.056,225.222-2.549,217.549,2.829,222.1,5.132,4.347,3.931,1.16,90.327-12.183A79.756,79.756,0,0,0,192,395.01Z"/><path d="M48,232c0-10.577-16-10.592-16,0C32,242.577,48,242.592,48,232Z"/><circle cx="200" cy="32" r="8"/></g></g></svg>
