<svg height="512" viewBox="0 0 512 512" width="512" xmlns="http://www.w3.org/2000/svg"><g id="Infected_Lungs" data-name="Infected Lungs"><g id="Outline"><path d="m361.9 152.342c-41.16-13.923-69.944 37.056-50.762 41.428a8 8 0 0 0 9.578-6.021c15.731-69 175.042 41.444 175.28 187.942-2.168 27.451-13.851 100.448-42.269 120.252-34.473-1.743-58.132-43.305-105.909-58.5a39.789 39.789 0 0 1 -27.818-38.073v-79.24c0-10.576-16-10.592-16 0v79.24a55.728 55.728 0 0 0 38.976 53.323c46.069 14.651 69.576 59.307 113.024 59.307a8 8 0 0 0 4.116-1.14c18.5-11.1 32.849-37.335 42.66-77.983 6.081-25.192 9.224-53.092 9.224-56.877 0-92.495-63.2-194.248-150.1-223.658z"/><path d="m200 312.14a8 8 0 0 0 -8 8v79.23a39.791 39.791 0 0 1 -27.824 38.076c-47.7 15.169-71.475 56.756-105.907 58.5-28.418-19.8-40.1-92.8-42.269-120.252.239-146.62 159.593-256.852 175.29-187.924 2.348 10.312 17.952 6.775 15.6-3.553-5.571-24.46-31.426-40.457-56.795-31.872-98.195 33.234-155.454 153.792-150.072 224.269a395.93 395.93 0 0 0 9.2 56.263c9.812 40.648 24.165 66.885 42.661 77.983a8 8 0 0 0 4.116 1.14c43.448 0 66.946-44.653 113.021-59.306a55.729 55.729 0 0 0 38.979-53.324v-79.23a8 8 0 0 0 -8-8z"/><path d="m365.725 274.411-77.725-79.611v-154.8c0-10.576-16-10.592-16 0 .824 163.689-2.042 159.225 2.275 163.648l73.752 75.54a30.576 30.576 0 0 1 -33.942-2.312c-49.938-36.135-54.249-47.993-62.966-41.236l-53.2 41.247a30.571 30.571 0 0 1 -33.941 2.3c74.933-77.865 76.022-75.103 76.022-81.087v-158.1c0-10.576-16-10.592-16 0v154.842l-77.723 79.568c-10.795 11.052 16.565 24.845 32.979 24.844 25.622 0 34.989-17.651 76.764-47.169l48.258 37.434c30.598 23.731 74.031-2.219 61.447-15.108z"/><path d="m288 8c0-10.577-16-10.592-16 0s16 10.592 16 0z"/><path d="m416 280c0-10.577-16-10.592-16 0s16 10.592 16 0z"/><circle cx="360" cy="200" r="8"/><path d="m384 216c-10.577 0-10.592 16 0 16s10.592-16 0-16z"/><path d="m440 448c10.577 0 10.592-16 0-16s-10.592 16 0 16z"/><path d="m336 400c0 10.577 16 10.592 16 0s-16-10.592-16 0z"/><path d="m464 400c0 10.577 16 10.592 16 0s-16-10.592-16 0z"/><path d="m448 296c0-10.577-16-10.592-16 0s16 10.592 16 0z"/><path d="m416 368c0-10.577-16-10.592-16 0s16 10.592 16 0z"/><path d="m240 8c0-10.577-16-10.592-16 0s16 10.592 16 0z"/><path d="m353.6 316.8 21.434 28.579a39.79 39.79 0 0 0 -6.229 14.621h-24.805c-10.578 0-10.591 16 0 16h24.805a39.894 39.894 0 0 0 9.321 18.56l-15.783 15.783c-7.5 7.5 3.913 18.713 11.314 11.314l17.423-17.423a39.7 39.7 0 0 0 8.92 2.966v32.8c0 10.576 16 10.592 16 0v-32.8a39.764 39.764 0 0 0 14.042-5.839c11.351 10.439 12.458 14.639 17.958 14.639a7.974 7.974 0 0 0 5.657-2.343c8.571-8.571-7.415-17.124-12.3-23.615a39.764 39.764 0 0 0 5.843-14.042h24.8c10.578 0 10.591-16 0-16h-24.8a39.764 39.764 0 0 0 -5.839-14.042l20.3-20.3c7.479-7.479-3.823-18.8-11.314-11.314l-20.3 20.3a39.764 39.764 0 0 0 -14.047-5.839c-1.115-7.72 4.038-24.805-8-24.805-12.014 0-6.864 16.936-8 24.805a39.743 39.743 0 0 0 -13.35 5.395l-20.25-27c-6.354-8.473-19.147 1.137-12.8 9.6zm54.4 27.2a24 24 0 1 1 -24 24 24.028 24.028 0 0 1 24-24z"/><path d="m104 288a8 8 0 0 0 8-8c0-10.577-16-10.592-16 0a8 8 0 0 0 8 8z"/><path d="m160 200c0-10.577-16-10.592-16 0 0 10.577 16 10.592 16 0z"/><path d="m120 208c-10.577 0-10.592 16 0 16s10.592-16 0-16z"/><path d="m144 224c-10.577 0-10.592 16 0 16 10.577 0 10.592-16 0-16z"/><path d="m64 440c0 10.577 16 10.592 16 0a8 8 0 0 0 -16 0z"/><path d="m168 392c-10.577 0-10.592 16 0 16a8 8 0 0 0 0-16z"/><path d="m40 408c10.577 0 10.592-16 0-16s-10.592 16 0 16z"/><circle cx="72" cy="296" r="8"/><path d="m104 360c-10.577 0-10.592 16 0 16 10.577 0 10.592-16 0-16z"/><path d="m140.6 313.867-15.25 20.333a39.734 39.734 0 0 0 -13.35-5.395c-1.115-7.722 4.038-24.805-8-24.805-12.014 0-6.864 16.934-8 24.805a39.756 39.756 0 0 0 -14.042 5.839l-20.3-20.3a8 8 0 0 0 -11.314 11.314l20.3 20.3a39.756 39.756 0 0 0 -5.839 14.042h-24.805c-10.576 0-10.592 16 0 16h24.805a39.756 39.756 0 0 0 5.839 14.042c-5.089 6.76-20.834 15.083-12.3 23.615a8 8 0 0 0 11.314 0l12.3-12.3a39.756 39.756 0 0 0 14.042 5.843v32.8c0 10.576 16 10.592 16 0v-32.8a39.681 39.681 0 0 0 8.92-2.961c16.78 15.761 17.414 19.761 23.08 19.761a7.976 7.976 0 0 0 5.657-2.343c8.862-8.861-8.292-17.6-15.783-27.1a39.9 39.9 0 0 0 9.326-18.557h24.8a8 8 0 0 0 0-16h-24.8a39.79 39.79 0 0 0 -6.229-14.621l16.429-21.913c6.344-8.459-6.446-18.075-12.8-9.599zm-36.6 78.133a24 24 0 1 1 24-24 24.028 24.028 0 0 1 -24 24z"/></g></g></svg>