<?xml version="1.0"?>
<svg xmlns="http://www.w3.org/2000/svg" viewBox="0 0 512 512" width="512" height="512"><g id="Infected_Person" data-name="Infected Person"><g id="Outline"><path d="M448.163,302.287a72.248,72.248,0,0,0-40.544-25.234L320,257.583c-.1-35.213.224-33.663-.253-35.549a87.737,87.737,0,0,0,19.881-31.02c25.341-4.841,25.3-31.732,27.656-36.805a23.11,23.11,0,0,0-13.259-26.854c3.355-14.3,8.877-41.8-7.876-73.42-4.951-9.346-19.1-1.869-14.138,7.491a80.783,80.783,0,0,1,8.867,27.511C309.671,68.634,279.725,104,256,104s-53.642-35.47-84.951-15.014C178.014,35.614,236.558.434,289.6,22.7A8,8,0,1,0,295.8,7.943a102.38,102.38,0,0,0-105,15.522c-52.485,43.264-32.72,101.843-32.816,103.887-23.664,10.277-9.678,36.774-9.636,41.157a30.65,30.65,0,0,0,24.027,22.505,87.439,87.439,0,0,0,19.894,30.966A8.008,8.008,0,0,0,192,224v33.583c-70.975,19.239-103.009,13.345-128.163,44.7C37.363,335.291,52.224,362.067,48,504a8,8,0,0,0,16,0V347.339a55.668,55.668,0,0,1,43.852-54.667l93.883-20.862c10.429-2.318,4.71-15.562,6.265-37.4,28.318,17.444,66.788,18.1,96,.091V264a8,8,0,0,0,6.265,7.81l93.883,20.862A55.668,55.668,0,0,1,448,347.339V504c0,10.576,16,10.592,16,0C459.7,359.628,474.583,335.224,448.163,302.287ZM256.229,231.731c-59.9,0-71.6-55.443-72.1-56.161-1.217-.3-16.814,2.644-20.279-11-1.686-10.337-6.056-15.554-2.36-20.307,3.427-4.4,8.392-2.321,15.747-2.855-4.948-24.213-5.428-25.29-6.166-30.953C196.646,79.557,222.414,120,256,120c33.781,0,59.246-40.521,84.895-9.579-1.308,10.719-3.971,17.975-4.285,22.425L336,141.41c6.2.493,11.13-1.48,14.5,2.855,3.7,4.755-.657,9.867-2.36,20.307-3.518,13.862-18.53,10.573-20.279,11C327.275,176.3,316.045,231.731,256.229,231.731Z"/><path d="M392,368a8,8,0,0,0-8,8V504a8,8,0,0,0,16,0V376A8,8,0,0,0,392,368Z"/><path d="M120,368a8,8,0,0,0-8,8V504a8,8,0,0,0,16,0V376A8,8,0,0,0,120,368Z"/><path d="M256,288a8,8,0,0,0,8-8c0-10.577-16-10.592-16,0A8,8,0,0,0,256,288Z"/><path d="M328,32a8,8,0,0,0-16,0C312,42.577,328,42.592,328,32Z"/><circle cx="256" cy="504" r="8"/><circle cx="168" cy="440" r="8"/><circle cx="344" cy="336" r="8"/><path d="M240,400c0,10.577,16,10.592,16,0S240,389.408,240,400Z"/><path d="M240,368c0,10.577,16,10.592,16,0S240,357.408,240,368Z"/><path d="M264,392c0,10.577,16,10.592,16,0S264,381.408,264,392Z"/><circle cx="168" cy="312" r="8"/><path d="M344,376H311.419a55.5,55.5,0,0,0-2.277-9.627c5.9-4.133,23.372-7.235,18.013-17.951-5.328-10.661-17.952,1.281-25.187,3.65a56.428,56.428,0,0,0-5.356-6.568l26.044-39.066a8,8,0,1,0-13.312-8.875l-25.323,37.983A55.562,55.562,0,0,0,264,328.581c-1.079-7.409,4.037-24.581-8-24.581-12.013,0-6.9,17.021-8,24.581-1.517.218-3.012.5-4.488.84l-20.5-37.276a8,8,0,0,0-14.02,7.71l19.476,35.411a56.154,56.154,0,0,0-6.057,3.958c-1.5-2.019-1.056-1.068-25.971-17.88a8,8,0,1,0-8.875,13.312l23.65,15.767a56.1,56.1,0,0,0-4.9,7.791c-4.264-1.257-16.351-12.033-21.47-1.792-5.229,10.456,11.323,13.537,16.166,17.027-.162.844-.307,1.694-.43,2.551H168a8,8,0,0,0,0,16h32.581a55.507,55.507,0,0,0,3.855,13.838c-7.99,7.056-26.026,12.43-19.046,22.669A7.993,7.993,0,0,0,192.007,432c4.209,0,5.077-2.29,20.744-12.467a56.488,56.488,0,0,0,8.573,8.389l-20.088,31.805a8,8,0,1,0,13.528,8.544l20.4-32.307A55.489,55.489,0,0,0,248,439.419V472a8,8,0,0,0,16,0V439.419a55.455,55.455,0,0,0,9.817-2.342C306.172,475.826,305.135,480,312.005,480a8.01,8.01,0,0,0,6.242-13l-29.878-37.348a56.359,56.359,0,0,0,6.416-5.317C325.47,439.355,324.659,440,327.994,440c8.436,0,11.084-11.408,3.584-15.157l-26.794-13.4A55.566,55.566,0,0,0,311.419,392H344a8,8,0,0,0,0-16Zm-88,48a40,40,0,1,1,40-40A40.045,40.045,0,0,1,256,424Z"/></g></g></svg>
