<?xml version="1.0"?>
<svg xmlns="http://www.w3.org/2000/svg" viewBox="0 0 512 512" width="512" height="512"><g id="Infrared_Thermometer_Gun" data-name="Infrared Thermometer Gun"><g id="Outline"><path d="M176,160a32,32,0,1,0-32-32A32.036,32.036,0,0,0,176,160Zm0-48a16,16,0,1,1-16,16A16.019,16.019,0,0,1,176,112Z"/><path d="M256,160a32,32,0,1,0-32-32A32.036,32.036,0,0,0,256,160Zm0-48a16,16,0,1,1-16,16A16.019,16.019,0,0,1,256,112Z"/><path d="M336,160a32,32,0,1,0-32-32A32.036,32.036,0,0,0,336,160Zm0-48a16,16,0,1,1-16,16A16.019,16.019,0,0,1,336,112Z"/><path d="M160,80h32a8,8,0,0,0,0-16H160a8,8,0,0,0,0,16Z"/><path d="M240,80h32a8,8,0,0,0,0-16H240a8,8,0,0,0,0,16Z"/><path d="M320,80h32a8,8,0,0,0,0-16H320a8,8,0,0,0,0,16Z"/><path d="M448,0H120.2C105.45,0,89.229,2.45,80.751,20.617c-.063.135-.123.273-.179.412l-48,120A8,8,0,0,0,32,144c0,27.537,14.749,45.143,45.019,53.606C45.878,278.783,42.781,395.039,88.6,507.029c3.861,9.442,10,3.149,122.293,4.971a38,38,0,0,0,37.2-45.726c-7.427-35.755-12.045-80.064-9.253-120.722,34.713.805,94.047-10.437,88.822-27.851-16.94-56.757-3.082-77.7-18.327-77.7a8,8,0,0,0-8,7.959c-.144,28.267,6.216,56.276,9.336,68.288-9.094,4.734-31.952,14.017-70.32,13.332C250.067,250.381,289.413,208,392,208h56a32.036,32.036,0,0,0,32-32V32A32.036,32.036,0,0,0,448,0ZM227.953,487.886c-11.52,14.159-20.987,5.562-126.55,8.114q-6.438-16.264-11.333-32H231.32C232.7,471.153,235.1,479.1,227.953,487.886ZM416,192H392c-122.145,0-194.6,60.541-163.488,256H85.384C57.64,346.418,71.852,245.551,95.238,195.406c.008-.015.012-.032.019-.047.031-.067.055-.139.084-.207a8.03,8.03,0,0,0,.342-.969c.016-.057.043-.107.058-.164l16.9-64.79a8,8,0,0,0-15.483-4.038L82.226,182.438c-28.927-7.769-33.9-22.747-34.21-36.937L95.34,27.191C99.316,18.83,105.628,16,120.2,16h5.444L113.309,63.291a8,8,0,1,0,15.482,4.039L142.181,16H416Zm48-16a16.019,16.019,0,0,1-16,16H432V16h16a16.019,16.019,0,0,1,16,16Z"/><circle cx="112" cy="96" r="8"/></g></g></svg>
