<svg height="512" viewBox="0 0 512 512" width="512" xmlns="http://www.w3.org/2000/svg"><g id="N95_Mask" data-name="N95 Mask"><g id="Outline"><path d="m345 200c-14.518 0-27.5-7.356-41.256-15.146-39.47-22.356-55.234-22.8-95.484 0-13.753 7.79-26.74 15.146-41.26 15.146-10.578 0-10.591 16 0 16 18.734 0 34.192-8.756 49.142-17.224 34.752-19.683 44.695-19.833 79.712 0 14.952 8.468 30.41 17.224 49.146 17.224 10.576 0 10.589-16 0-16z"/><path d="m448 192h-24c-41.337 0-109.769-65.257-185.828-54.725-10.472 1.452-8.309 17.277 2.195 15.85 66.484-9.219 129.606 48.183 175.633 54.322v99.874c-17.844 9.855-92.264 49.071-152 52.442v-127.763c0-10.578-16-10.591-16 0v127.763c-59.736-3.371-134.156-42.587-152-52.442v-99.893c24.245-3.332 53.376-20.746 85.92-35.48 9.639-4.364 3.05-18.941-6.6-14.576-33.901 15.35-66.132 34.628-87.32 34.628h-24a64 64 0 0 0 0 128h21.868c14.3 8.117 101.567 56 170.132 56s155.833-47.883 170.132-56h21.868a64 64 0 0 0 0-128zm-368 112h-16a48 48 0 0 1 0-96h16zm368 0h-16v-96h16a48 48 0 0 1 0 96z"/><path d="m208 160c10.577 0 10.592-16 0-16-10.577 0-10.592 16 0 16z"/><path d="m296 280a40 40 0 1 0 40-40 40.045 40.045 0 0 0 -40 40zm64 0a24 24 0 1 1 -24-24 24.028 24.028 0 0 1 24 24z"/><path d="m352 136v-12.687c17.72 16.723 18.323 20.687 24 20.687a8.005 8.005 0 0 0 8-8v-32c0-10.578-16-10.591-16 0v12.687c-15.578-13.794-18.875-23.47-27.062-20.078-8.406 3.483-3.579 12.791-4.938 39.391 0 10.578 16 10.591 16 0z"/><path d="m408 160c-10.578 0-10.591 16 0 16h32a8 8 0 0 0 8-8v-64a8 8 0 0 0 -8-8h-32a8 8 0 0 0 -8 8v32a8 8 0 0 0 8 8h24v16zm8-32v-16h16v16z"/><path d="m488 128h-8v-16h24c10.578 0 10.591-16 0-16h-32a8 8 0 0 0 -8 8v32a8 8 0 0 0 8 8h16c10.588 0 10.575 16 0 16h-16c-10.578 0-10.591 16 0 16h16a24 24 0 0 0 0-48z"/></g></g></svg>