<svg height="512" viewBox="0 0 512 512" width="512" xmlns="http://www.w3.org/2000/svg"><g id="Protective_Glasses" data-name="Protective Glasses"><g id="Outline"><path d="m458.557 199.9c-31.631-67.937-178.887-78.071-259.842-68.645a8 8 0 1 0 1.85 15.892c108.178-12.587 247.435 13.787 247.435 77.313v97.512c-41.448 22.852-110.793 53.5-132.984 44.467-.859-.349-8.733-4.351-20.548-36.8-12.91-35.472-64-35.551-76.935 0-11.816 32.445-19.69 36.447-20.549 36.8-22.173 9.034-91.527-21.618-132.984-44.468v-97.511c0-36.783 47.158-56.553 75.268-65.063a8 8 0 1 0 -4.636-15.314c-31.193 9.445-67.511 26.424-81.192 55.815-24.832-.507-53.44 7.156-53.44 32.102.285 41.916-.645 40.6.845 43.578.978 1.956 10.177 18.134 47.155 20.2 1.164 27.274-2.85 33.955 4.069 37.858 31.37 17.688 117.4 61.277 150.947 47.622 6.424-2.615 16.478-10.243 29.551-46.144 7.821-21.489 39.048-21.482 46.866 0 13.073 35.9 23.127 43.528 29.551 46.143 33.719 13.722 121.18-30.837 150.947-47.622 6.945-3.918 2.937-11.338 4.069-37.858 26.916-1.5 48-13.209 48-23.78v-39.997c0-24.863-28.433-32.612-53.443-32.1zm-410.557 79.851c-20.99-1.33-29.377-7.746-32-10.434v-20.833c7.139 3.469 17.416 6.473 32 7.29zm0-40c-20.411-1.293-28.9-7.393-31.762-10.2 2.163-10.711 21.49-13.268 32.4-13.621-1.018 6.98-.49 10.247-.638 23.824zm415.365-23.823c10.917.351 30.235 2.915 32.4 13.622-2.866 2.808-11.351 8.908-31.762 10.2-.151-13.694.375-16.87-.638-23.819zm32.635 53.389c-2.623 2.688-11.01 9.1-32 10.434v-23.977c14.584-.817 24.861-3.821 32-7.29z"/><path d="m84.128 316.242a478.544 478.544 0 0 0 54.643 25.807 7.927 7.927 0 0 0 5.085 1.945c11.131 4.159 30.27 10.509 42.083 10.509a8 8 0 0 0 6.792-3.774c2.517-4.045 6.572-11.761 11.593-25.548 17.285-47.47 86.075-47.447 103.352 0 5.022 13.789 9.076 21.5 11.593 25.549 9.8 15.74 92.256-25.464 108.6-34.494 7.681-4.244 2.685-9.155 4.131-91.394 1.6-17.975-14.538-34.147-46.714-46.8-107.57-42.285-310.771-15.268-305.286 46.798 1.483 84.427-3.3 87.293 4.128 91.402zm287.193-126.29-10.085 18.725a8.01 8.01 0 0 0 7.037 11.8c7.965 0 8.107-8.522 18.054-24.64 12.649 5.663 29.673 14.832 29.673 28.619v80.026c-28.409 15.271-65.307 30.938-85.481 33.629-4.5-8.735-7.322-17.447-9.113-21.7l23.617-43.856a8 8 0 1 0 -14.086-7.586l-19.016 35.31a69.019 69.019 0 0 0 -15.677-14.569l54.794-101.761c7.084 1.781 13.862 3.786 20.283 6.003zm-149.7-14.987-21.979 40.822a8 8 0 1 0 14.088 7.586l26.66-49.515c33.421-1.315 65.838.963 94.406 6.494l-52.761 97.987c-36.479-13.915-78.813 3.092-92.749 41.367a160.258 160.258 0 0 1 -7.81 18.406c-6.971-.927-15.927-3.4-25.834-6.865l27.758-51.554c5.013-9.311-9.065-16.912-14.088-7.586l-28.752 53.406c-5.984-2.434-12.107-5.1-18.189-7.9l75.45-140.123c7.709-1.031 15.666-1.879 23.804-2.525zm-43.686 5.7-70.003 130.015c-4.09-2.048-8.091-4.121-11.932-6.188-.016-85.4.039-80.082-.044-80.875-2.418-22.934 59.382-38.734 81.983-42.95z"/><circle cx="352" cy="240" r="8"/><circle cx="192" cy="248" r="8"/><circle cx="168" cy="144" r="8"/></g></g></svg>