<?xml version="1.0"?>
<svg xmlns="http://www.w3.org/2000/svg" viewBox="0 0 512 512" width="512" height="512"><g id="Protective_Suit_PPE" data-name="Protective Suit PPE"><g id="Outline"><path d="M256,32a32.036,32.036,0,0,0-32,32V88a32.057,32.057,0,0,0,24,30.987V280c0,10.578,16,10.591,16,0V118.987C296.367,110.626,286.331,72.4,288,64A32.036,32.036,0,0,0,256,32Zm16,56a16,16,0,0,1-32,0V64c0-21.177,32-21.15,32,0Z"/><path d="M462.521,264.9C375.169,150.465,370.428,114.1,320,97.964V64c0-67.336-88.36-76.107-83.454-53.111a8,8,0,0,0,9.493,6.155A48.05,48.05,0,0,1,304,64c1.754,32.895-4.333,45.163,6.061,47.762,46.487,11.614,54.445,50.234,111.258,122.8l-26.826,18.107c-51.858-68.39-50.945-78.2-60.954-74.968C322.928,181.128,330.232,179.4,328,456a8.009,8.009,0,0,1-8,8H288a8.009,8.009,0,0,1-8-8V336a24,24,0,0,0-48,0V456a8.009,8.009,0,0,1-8,8H192a8.009,8.009,0,0,1-8-8V187.38a8.007,8.007,0,0,0-14.486-4.683l-51,70.646L91.438,235.069l64.171-91.475a80.418,80.418,0,0,1,46.331-31.833A8,8,0,0,0,208,104c.295-39.21-.713-41.722,1.044-49.961a8,8,0,0,0-6.155-9.493C188.773,41.538,192.361,65,192,97.966a96.41,96.41,0,0,0-49.489,36.439L50.941,264.936a8,8,0,0,0,1.868,11.082l38.92,28.089a8,8,0,0,0,11.167-1.8L168,212.128V456a24.039,24.039,0,0,0,16,22.624V504a8,8,0,0,0,8,8h32a8,8,0,0,0,8-8V478.624A24.039,24.039,0,0,0,248,456V336c0-10.588,16-10.575,16,0V456a24.039,24.039,0,0,0,16,22.624V504a8,8,0,0,0,8,8h32a8,8,0,0,0,8-8V478.624A24.039,24.039,0,0,0,344,456V210.059L410.594,302.3a8,8,0,0,0,11.168,1.8l38.92-28.089A8,8,0,0,0,462.521,264.9ZM94.606,286.452,68.572,267.663l13.676-19.494,26.892,18.152ZM216,496H200V480h16Zm96,0H296V480h16ZM418.885,286.452l-15.022-20.808,26.73-18.042,14.284,20.09Z"/><path d="M280,168a8,8,0,0,0,8,8h16a8,8,0,0,0,0-16H288A8,8,0,0,0,280,168Z"/><circle cx="216" cy="24" r="8"/></g></g></svg>
