<svg height="512" viewBox="0 0 512 512" width="512" xmlns="http://www.w3.org/2000/svg"><g id="Thermometer"><g id="Outline"><path d="m503.46 76.422c-65.646-61.876-68.114-77.255-90.51-77.255-23.788 0-11.128 2.533-247.05 233.792a8 8 0 0 0 -2.262 4.528c-24.705 173.3-201.838 222.266-156.609 267.483 45.62 45.62 92.971-131.729 267.484-156.611 5.022-.716-9.554 10.985 228.947-226.682a31.982 31.982 0 0 0 0-45.255zm-485.117 417.234c-8.3-8.3 2.784-13.013 62.343-73.656l11.314 11.313c-59.21 58.152-65.079 70.921-73.657 62.343zm445.519-355.009-38.162-38.166c-7.478-7.476-18.805 3.824-11.314 11.314l38.166 38.166-182.952 182.95c-106.191 16.176-162.4 84.232-166.287 87.089l-11.313-11.314c2.6-3.534 71.023-60.816 87.089-166.285l182.949-182.95c13.016 12.1 14.4 16.687 20 16.687a7.974 7.974 0 0 0 5.662-2.338c8.77-8.77-7.992-17.464-14.344-25.657 51.353-47.93 24.261-51.967 118.794 39.6a15.9 15.9 0 0 1 4.687 11.313c-.004 11.062-8.708 13.592-32.975 39.591z"/><path d="m311.127 132.991-113.138 113.137a8 8 0 0 0 -.01 11.3l56.457 56.681a8 8 0 0 0 11.325.011l113.249-113.247a8 8 0 0 0 0-11.313c-54.345-53.268-59.588-64.86-67.883-56.569zm-51.013 164.15-45.165-45.341 101.835-101.839 45.255 45.255z"/><path d="m243.245 246.128a8 8 0 0 0 0 11.313c10.095 9.239 11.5 13.658 16.971 13.658a8.01 8.01 0 0 0 5.657-13.657c-5.661-4.191-14.16-19.781-22.628-11.314z"/><path d="m265.873 223.5a8 8 0 0 0 0 11.314c10.095 9.238 11.5 13.657 16.971 13.657a8.01 8.01 0 0 0 5.657-13.657c-5.653-4.184-14.161-19.781-22.628-11.314z"/><path d="m299.813 200.873c-7.477-7.479-18.8 3.823-11.314 11.314 10.095 9.238 11.5 13.657 16.971 13.657a7.971 7.971 0 0 0 5.656-2.344c8.424-8.421-6.889-16.651-11.313-22.627z"/><path d="m322.44 200.873a8 8 0 0 0 11.314 0c8.424-8.422-6.889-16.651-11.313-22.627a8 8 0 0 0 -11.313 0c-8.428 8.421 6.889 16.654 11.312 22.627z"/><path d="m345.068 129.677c5.793 0 6.067-3.826 28.285-24.97 7.478-7.479-3.823-18.8-11.315-11.314l-22.627 22.628a8.009 8.009 0 0 0 5.657 13.656z"/><path d="m367.7 152.305c5.789 0 6.011-3.772 28.285-24.971 7.478-7.478-3.82-18.8-11.314-11.313l-22.628 22.627a8.009 8.009 0 0 0 5.657 13.657z"/><path d="m384.666 161.275c-7.477 7.477 3.822 18.8 11.314 11.314l22.627-22.628c7.479-7.478-3.823-18.8-11.314-11.313z"/><path d="m256 104v-32c0-10.576-16-10.592-16 0v32c0 10.576 16 10.592 16 0z"/><path d="m224 152v-32c0-10.576-16-10.592-16 0v32c0 10.576 16 10.592 16 0z"/><path d="m224 88v-48c0-10.576-16-10.592-16 0v48c0 10.576 16 10.592 16 0z"/><path d="m192 184v-96c0-10.576-16-10.592-16 0v96c0 10.576 16 10.592 16 0z"/><path d="m256 8c0-10.577-16-10.592-16 0s16 10.592 16 0z"/><path d="m224 8c0-10.577-16-10.592-16 0s16 10.592 16 0z"/><path d="m256 40c0-10.577-16-10.592-16 0 0 10.577 16 10.592 16 0z"/><path d="m408 88c0-10.577-16-10.592-16 0 0 10.577 16 10.592 16 0z"/><path d="m192 24c0-10.577-16-10.592-16 0 0 10.577 16 10.592 16 0z"/><path d="m184 64c10.577 0 10.592-16 0-16-10.577 0-10.592 16 0 16z"/></g></g></svg>