<svg height="512" viewBox="0 0 512 512" width="512" xmlns="http://www.w3.org/2000/svg"><g id="Virus-2" data-name="Virus"><g id="Outline"><path d="m458.634 360.061a62.7 62.7 0 0 1 -42.773-18.141c-7.479-7.479-18.8 3.824-11.314 11.313 23.132 23.133 52.915 22.714 53.348 22.811 33.971 1.561 51.214 43.417 26.389 68.241-24.721 24.723-66.671 7.759-68.24-26.377a77.9 77.9 0 0 0 -22.809-53.359l-21.445-21.449a8 8 0 0 0 -11.773.5c-30.2 35.819-51.131 30.465-48.449 43.345 12.04 57.797 32.432 68.493 32.432 85.055a23.765 23.765 0 0 1 -7.629 17.549c-14.752 13.77-38.965 4.177-40.314-15.871-.617-9.156 9.537-36.952.981-78.025-.154-.739.3.856-9.406-30.052-3.173-10.088-18.441-5.307-15.264 4.8l9.086 28.9c8.009 38.994-2.281 61.8-1.361 75.454a40 40 0 0 0 79.907-2.755c0-23.728-18.442-27.28-31.456-82.4a151.1 151.1 0 0 0 37.919-29.2l15.459 15.459c18.664 18.664 18.02 42.231 18.138 42.764 2.187 47.583 60.784 71.725 95.537 36.972 34.353-34.348 11.144-93.323-36.963-95.534z"/><path d="m256 392a136.007 136.007 0 0 1 -88.307-32.577 8 8 0 0 0 -10.855.425c-12.416 15.278-43.194 32-44.864 73.472l-.019.409c-1.424 27.237-35.075 40.695-54.748 20.731-18.451-18.723-7.518-50.108 17.728-54.062l.337-.051a64.441 64.441 0 0 0 36.567-18.128c7.479-7.478-3.823-18.8-11.313-11.313-12.206 12.2-27.631 13.554-28.05 13.682-37.689 5.9-54.507 52.852-26.665 81.1 29.081 29.512 79.94 10.634 82.122-31.119l.027-.6c1.318-32.714 25.372-45.728 35.09-57.71a151.79 151.79 0 0 0 27.434 16.88l-13.639 27.278a8.008 8.008 0 0 0 7.149 11.583c8.476 0 8.067-9.139 21.309-32.72a152.039 152.039 0 0 0 32.957 7.67l-14.07 63.313c-2.295 10.327 13.322 13.809 15.62 3.47l14.611-65.751c13.379.138 11.637-15.982 1.579-15.982z"/><path d="m104.843 272.043a151.146 151.146 0 0 0 10.351 41.263l-38.165 15.266a8 8 0 1 0 5.942 14.856l39.048-15.619a152.247 152.247 0 0 0 12.173 19.128c6.2 8.294 19.215-1.02 12.814-9.582a135.185 135.185 0 0 1 -26.793-73.792c-.511-9.324-11.645-7.366-12.362-7.563-38.918 0-54.69 16-67.851 16a23.767 23.767 0 0 1 -17.55-7.629c-17.9-19.178 4.228-49.725 28.148-37.909 33.613 16.6 58.76 13.07 63.4 13.538a8 8 0 0 0 7.89-6.676 136.384 136.384 0 0 1 59.486-91.031 8 8 0 0 0 1.261-12.34l-11.2-11.2c-23.18-23.18-52.907-22.7-53.339-22.8-33.965-1.56-51.205-43.419-26.376-68.242 24.707-24.7 66.67-7.778 68.237 26.406a77.842 77.842 0 0 0 22.8 53.326c7.479 7.479 18.8-3.824 11.314-11.313-18.659-18.659-18.013-42.219-18.131-42.752-2.176-47.456-60.708-71.8-95.533-36.982a56.172 56.172 0 0 0 -16.333 42.504c1.441 28.431 24.851 51.728 53.281 53.035a62.856 62.856 0 0 1 42.775 18.133l4.478 4.478a152.2 152.2 0 0 0 -18.8 16.807l-29.008-21.753c-8.459-6.346-18.075 6.444-9.6 12.8l28.2 21.148a152.871 152.871 0 0 0 -16.3 26.452l-58.86-36.784c-8.966-5.6-17.464 7.953-8.48 13.568l61.066 38.167a150.394 150.394 0 0 0 -5.437 19.049c-.786-.093-23.2 1.209-49.7-11.883-39.655-19.587-76.889 31.075-46.936 63.171a40.141 40.141 0 0 0 29.247 12.712c18.928 0 29.109-14.925 64.843-15.957z"/><path d="m209.851 128.035a135.474 135.474 0 0 1 38.587-7.823c9.323-.509 7.365-11.644 7.562-12.361 0-19.208-4.6-38.562-13.67-57.525a23.967 23.967 0 0 1 5.3-27.876c19.178-17.9 49.725 4.228 37.909 28.148-8.984 18.185-13.539 36.849-13.539 55.473.521 2.8-2.588 14.266 6.676 15.821 53.635 9 62.936 38.927 73.022 26.218a8 8 0 0 0 -1.295-11.239 151.857 151.857 0 0 0 -28.883-18.024l13.635-27.269c4.73-9.459-9.574-16.629-14.31-7.156l-14.145 28.285a151.023 151.023 0 0 0 -18.7-5.318v-1.318c0-37.8 17.379-47.187 15.9-68.848a40.081 40.081 0 0 0 -37.076-37.123c-30.891-2.136-51.978 29.846-38.924 57.13 7.553 15.789 11.6 31.792 12.061 47.614a151.231 151.231 0 0 0 -35.535 8.14c-9.969 3.594-4.526 18.64 5.425 15.051z"/><path d="m398 240c3.186-.328 32.213 1.38 63.676-13.67a23.967 23.967 0 0 1 27.876 5.3c17.62 18.878-3.6 49.194-27.539 38.2a148.226 148.226 0 0 0 -62.238-13.83c-14.765 0-1.19 20.046-22.67 61.948-4.829 9.42 9.411 16.717 14.239 7.3a151.525 151.525 0 0 0 8.707-20.611c39.105 15.423 37.199 15.363 39.949 15.363 8.755 0 11.135-12.165 2.973-15.43l-38.589-15.435a151.473 151.473 0 0 0 2.76-16.928c39.68 2.26 47.01 17.1 67.636 15.7 33.422-2.272 49.426-42.6 26.469-67.193a40.051 40.051 0 0 0 -46.479-8.814 127.383 127.383 0 0 1 -50.186 11.98 151.181 151.181 0 0 0 -5.281-18.583l44.275-22.138c9.461-4.73 2.32-19.045-7.156-14.31l-43.265 21.633a152.047 152.047 0 0 0 -14.394-24.1c18.7-16.027 28.232-36.787 56.154-38.462l.548-.036a48 48 0 1 0 -51.4-50.39 40.433 40.433 0 0 1 -11.6 27.3c-7.479 7.477 3.823 18.8 11.313 11.313 16.294-16.293 16.205-37.54 16.264-37.8 1.4-27.095 34.792-40.726 54.586-20.928 19.287 19.291 7.032 52.6-20.3 54.542l-.359.023c-36.491 2.191-49.182 29.125-71.482 48.081a8 8 0 0 0 -.571 10.679c34.184 42.382 21.257 69.296 36.084 69.296z"/><path d="m304 256a40.045 40.045 0 0 0 40-40c0-37.2-48-50.237-48-32a8 8 0 0 0 8 8 24 24 0 1 1 -24 24 8 8 0 0 0 -8-8c-18.236 0-5.193 48 32 48z"/><path d="m200 288a8 8 0 0 0 8 8 16 16 0 1 1 -16 16c0-10.576-16-10.592-16 0a32 32 0 0 0 64 0c0-30.515-40-40.8-40-24z"/><path d="m184 204a8 8 0 0 0 -8-8c-16.226 0-7.037 36 20 36a28 28 0 0 0 0-56c-10.576 0-10.592 16 0 16a12.013 12.013 0 0 1 12 12c0 15.882-24 15.863-24 0z"/><path d="m324 328a28 28 0 0 0 0-56c-10.576 0-10.592 16 0 16 15.882 0 15.863 24 0 24a12.013 12.013 0 0 1 -12-12 8 8 0 0 0 -8-8c-16.226 0-7.037 36 20 36z"/><path d="m40 144c0-10.577-16-10.592-16 0 0 10.577 16 10.592 16 0z"/><path d="m456 160c0 10.577 16 10.592 16 0 0-10.577-16-10.592-16 0z"/><path d="m472 400c-10.577 0-10.592 16 0 16s10.592-16 0-16z"/><path d="m448 440c10.577 0 10.592-16 0-16s-10.592 16 0 16z"/><path d="m432 400c0 10.577 16 10.592 16 0s-16-10.592-16 0z"/><path d="m440 80c0-10.577-16-10.592-16 0 0 10.577 16 10.592 16 0z"/><path d="m256 304c0 10.577 16 10.592 16 0s-16-10.592-16 0z"/><path d="m280 144c-10.577 0-10.592 16 0 16s10.592-16 0-16z"/><path d="m112 32c-10.577 0-10.592 16 0 16 10.577 0 10.592-16 0-16z"/><path d="m128 80c10.577 0 10.592-16 0-16-10.577 0-10.592 16 0 16z"/><path d="m216 264c10.577 0 10.592-16 0-16-10.577 0-10.592 16 0 16z"/><path d="m232 368c10.577 0 10.592-16 0-16-10.577 0-10.592 16 0 16z"/><path d="m248 168c0-10.577-16-10.592-16 0 0 10.577 16 10.592 16 0z"/><path d="m336 72c10.577 0 10.592-16 0-16s-10.592 16 0 16z"/><path d="m216 496c0 10.577 16 10.592 16 0s-16-10.592-16 0z"/><path d="m80 424c0 10.577 16 10.592 16 0s-16-10.592-16 0z"/><circle cx="48" cy="352" r="8"/></g></g></svg>