<svg height="512" viewBox="0 0 512 512" width="512" xmlns="http://www.w3.org/2000/svg"><g id="Virus_Cleaning-2" data-name="Virus Cleaning"><g id="Outline"><path d="m353.371 32.118c-190.89-32.126-185.1-34.8-190.52-30.24a8 8 0 0 0 -2.851 6.122c0 31.637 12 39.1 37.47 47.59 21.19 7.063 89.733 33.444 103.845 38.888l74.638 123.671c-.354 10.924-3.367 60.412-28.753 79.451-11.784 8.838-41.5-3.064-81.539-32.646-33.746-24.935-62.146-52.766-62.795-53.339a45.566 45.566 0 0 0 -49.449-7.425c-30.432 13.723-36.177 52.85-13.262 75.108l100.927 98.055c3.808 10.686 20.2 55.246 33.261 68.3 18.522 18.522 37.273 24.023 46.961 25.655l6.851 34.257c2.077 10.383 17.765 7.244 15.69-3.138l-8-40c-2.569-12.842-20.45 1.65-50.188-28.088-8.624-8.623-23.043-43.871-30.106-64.064-1.181-3.377 3.353 2.5-104.247-102.459a30.036 30.036 0 0 1 8.69-49.045 29.369 29.369 0 0 1 32.141 4.709c33.626 32.725 127.04 115.137 164.665 86.92 32.7-24.525 37.805-92.314 34.05-98.534-81.305-133.553-76.495-129.5-81.214-131.328-3.387-1.309-83.2-32.159-107.106-40.128-18.4-6.135-24.532-9.478-26.085-22.821l171.138 29.763 41.371 53.2c6.494 8.35 19.132-1.462 12.631-9.822-45.011-56.705-42.737-57.66-48.214-58.612z"/><path d="m511.718 501.9-23.791-87.237-15.946-231.21c-.3-4.329-.888-2.607-31.157-42.271-6.5-8.347-19.132 1.464-12.629 9.824l27.992 35.983c16.863 243.711 15.698 229.661 16.095 231.111l24 88c2.784 10.22 18.218 6.005 15.436-4.2z"/><path d="m144 88c0-10.577-16-10.592-16 0 0 10.577 16 10.592 16 0z"/><path d="m408 120c0 10.577 16 10.592 16 0 0-10.577-16-10.592-16 0z"/><path d="m104 64c-10.577 0-10.592 16 0 16 10.577 0 10.592-16 0-16z"/><path d="m96 104c0 10.577 16 10.592 16 0 0-10.577-16-10.592-16 0z"/><path d="m72 112c-10.577 0-10.592 16 0 16 10.577 0 10.592-16 0-16z"/><path d="m64 88c0 10.577 16 10.592 16 0 0-10.577-16-10.592-16 0z"/><path d="m64 56c0 10.577 16 10.592 16 0 0-10.577-16-10.592-16 0z"/><path d="m32 104c0 10.577 16 10.592 16 0 0-4.418-16-10.592-16 0z"/><path d="m32 136c0 10.577 16 10.592 16 0 0-10.577-16-10.592-16 0z"/><path d="m40 64c-10.577 0-10.592 16 0 16 10.577 0 10.592-16 0-16z"/><path d="m32 40c0 10.577 16 10.592 16 0s-16-10.592-16 0z"/><path d="m0 88c0 10.577 16 10.592 16 0 0-10.577-16-10.592-16 0z"/><path d="m8 112c-10.577 0-10.592 16 0 16s10.592-16 0-16z"/><path d="m0 152c0 10.577 16 10.592 16 0 0-10.577-16-10.592-16 0z"/><path d="m8 48c-10.577 0-10.592 16 0 16s10.592-16 0-16z"/><path d="m8 16c-10.577 0-10.592 16 0 16s10.592-16 0-16z"/><path d="m136 192v-32a16.019 16.019 0 0 1 16-16h48v40c0 10.578 16 10.591 16 0v-40h48a16.019 16.019 0 0 1 16 16v56h-32c-10.576 0-10.592 16 0 16h32v16c0 10.578 16 10.591 16 0v-88a32.036 32.036 0 0 0 -32-32h-16v-32c0-10.578-16-10.591-16 0v32h-48v-56c0-10.578-16-10.591-16 0v56h-16a32.036 32.036 0 0 0 -32 32v32c0 10.578 16 10.591 16 0z"/><path d="m288 472a8 8 0 0 0 -8 8 16.019 16.019 0 0 1 -16 16h-112a16.019 16.019 0 0 1 -16-16v-184c0-10.578-16-10.591-16 0v184a32.036 32.036 0 0 0 32 32h112c30.515 0 40.8-40 24-40z"/></g></g></svg>