<?xml version="1.0"?>
<svg xmlns="http://www.w3.org/2000/svg" viewBox="0 0 512 512" width="512" height="512"><g id="Virus_Cleaning" data-name="Virus Cleaning"><g id="Outline"><path d="M288,80v32c0,25.529,16.4,44.742,40,48.289V168c0,10.578,16,10.591,16,0V154.849C361.9,119.081,347.754,64,307.26,64H298.3c16.4-49.06,65.264-57.878,97.9-38.565,9.113,5.4,17.253-8.383,8.149-13.77C352.357-19.1,289.684,12.972,280.038,70.687a8,8,0,0,0,1.788,6.485A7.839,7.839,0,0,0,288,80Zm16,0h3.26c26.384,0,34.286,39.516,23.83,64.563C314.914,142.416,304,129.631,304,112Z"/><path d="M64,288c0-10.577-16-10.592-16,0S64,298.592,64,288Z"/><path d="M24,280c10.577,0,10.592-16,0-16S13.408,280,24,280Z"/><path d="M56,344c-10.577,0-10.592,16,0,16C66.577,360,66.592,344,56,344Z"/><path d="M16,368c0,10.577,16,10.592,16,0S16,357.408,16,368Z"/><path d="M64,320c0,10.577,16,10.592,16,0S64,309.408,64,320Z"/><path d="M0,320c0,10.577,16,10.592,16,0S0,309.408,0,320Z"/><path d="M40,312c-10.577,0-10.592,16,0,16C50.577,328,50.592,312,40,312Z"/><path d="M504,160H424c-8.344,0-7.96,8.916-8,9.016a131.332,131.332,0,0,0-16.736-19.7c35.241-15.576,50.741-46.049,44.585-81.026-1.834-10.427-17.592-7.648-15.758,2.773,9.64,54.769-44.731,65.737-49.088,69.046a7.994,7.994,0,0,0-.781,12.082C380.6,154.534,416,180.927,416,216c.214,107.325-.524,104.522.619,110.258-1.47,3.51,1.827,29.922-22.033,51.852-4.393,4.039-1.883,8.633-2.586,29.89,0,10.578,16,10.591,16,0v-20.6a82.5,82.5,0,0,0,22.149-40.859A32.584,32.584,0,0,0,448.69,352c2.805,52.762-23.053,88-80.69,88-66.281,0-97.956-86.729-103.439-103.437,58.914-29.625,58-28.032,60.083-30.849l60.868-82.1c6.3-8.494-6.545-18.039-12.854-9.529l-59.723,80.557L277.49,312.266l-11.528-28.887c33.648-18.063,32.967-16.8,34.844-19.244l50.394-65.8c6.43-8.395-6.258-18.138-12.7-9.728l-49.33,64.413C248.85,276.144,233.839,277.478,222.784,296H104a8,8,0,0,0-8,8v32a8,8,0,0,0,8,8H222.158c7.793,13.855,12.548,7.112,27.919-.235C268.888,399.392,309.211,456,368,456c67.292,0,99.751-43.51,96.747-104H480a32.036,32.036,0,0,0,32-32V168A8,8,0,0,0,504,160ZM216.6,328H112V312H216.782A47.828,47.828,0,0,0,216.6,328Zm18.165,5.511a31.863,31.863,0,0,1-1.933-20.174c3.856-16.631,17.972-21.694,18.9-22.438l11.38,28.514ZM496,320a16.019,16.019,0,0,1-16,16H448a16.019,16.019,0,0,1-16-16V240h64Zm0-96H432V176h16v16c0,10.578,16,10.591,16,0V176h32Z"/><path d="M104,144c10.577,0,10.592-16,0-16C93.423,128,93.408,144,104,144Z"/><path d="M0,96c0,10.577,16,10.592,16,0C16,85.423,0,85.408,0,96Z"/><path d="M136,88c-10.577,0-10.592,16,0,16S146.592,88,136,88Z"/><path d="M64,64c0,10.577,16,10.592,16,0C80,53.423,64,53.408,64,64Z"/><path d="M112,112a8.009,8.009,0,0,0,5.657-13.657l-12.3-12.3A39.764,39.764,0,0,0,111.2,72H136c10.578,0,10.591-16,0-16H111.2a39.764,39.764,0,0,0-5.839-14.042l20.3-20.3c7.477-7.479-3.822-18.8-11.314-11.314l-20.3,20.3A39.764,39.764,0,0,0,80,24.805V8C80-2.578,64-2.591,64,8V24.805a39.743,39.743,0,0,0-13.35,5.4L30.4,3.2c-6.358-8.474-19.146,1.138-12.8,9.6L39.034,41.379A39.79,39.79,0,0,0,32.805,56H8C-2.578,56-2.591,72,8,72H32.805a39.9,39.9,0,0,0,9.321,18.56L26.343,106.343c-7.5,7.5,3.911,18.712,11.314,11.314l17.424-17.423A39.673,39.673,0,0,0,64,103.2V136c0,10.578,16,10.591,16,0V103.2a39.764,39.764,0,0,0,14.042-5.839C105.363,107.776,106.5,112,112,112ZM72,88A24,24,0,1,1,96,64,24.028,24.028,0,0,1,72,88Z"/><path d="M216,112c10.577,0,10.592-16,0-16C205.423,96,205.408,112,216,112Z"/><path d="M128,232c10.577,0,10.592-16,0-16C117.423,216,117.408,232,128,232Z"/><path d="M256,232c10.577,0,10.592-16,0-16S245.408,232,256,232Z"/><path d="M200,192c0-10.577-16-10.592-16,0C184,202.577,200,202.592,200,192Z"/><path d="M432,40c0-10.577-16-10.592-16,0C416,50.577,432,50.592,432,40Z"/><path d="M137.6,140.8l21.434,28.579A39.79,39.79,0,0,0,152.805,184H128c-10.578,0-10.591,16,0,16h24.805a39.9,39.9,0,0,0,9.321,18.56l-15.783,15.783A8.009,8.009,0,0,0,152,248c5.706,0,6.94-4.6,23.081-19.766A39.673,39.673,0,0,0,184,231.2V264c0,10.578,16,10.591,16,0V231.2a39.764,39.764,0,0,0,14.042-5.839C225.363,235.776,226.5,240,232,240a8.009,8.009,0,0,0,5.657-13.657l-12.3-12.3A39.764,39.764,0,0,0,231.2,200H256c10.578,0,10.591-16,0-16H231.2a39.764,39.764,0,0,0-5.839-14.042l20.3-20.3c7.477-7.479-3.822-18.8-11.314-11.314l-20.3,20.3A39.764,39.764,0,0,0,200,152.805V136c0-10.578-16-10.591-16,0v16.805a39.743,39.743,0,0,0-13.35,5.395l-20.25-27a8,8,0,0,0-12.8,9.6ZM192,168a24,24,0,1,1-24,24A24.028,24.028,0,0,1,192,168Z"/><path d="M328,320v80c0,10.578,16,10.591,16,0V320C344,309.422,328,309.409,328,320Z"/><path d="M328,472v32c0,10.578,16,10.591,16,0V472C344,461.422,328,461.409,328,472Z"/><path d="M392,472v32c0,10.578,16,10.591,16,0V472C408,461.422,392,461.409,392,472Z"/></g></g></svg>
