<svg height="512" viewBox="0 0 512 512" width="512" xmlns="http://www.w3.org/2000/svg"><g id="Virus_Mask_Protection" data-name="Virus Mask Protection"><g id="Outline"><path d="m167 200c-10.576 0-10.592 16 0 16 35.683 0 59.942-32 89-32 29.075 0 53.3 32 89 32 10.578 0 10.591-16 0-16-14.518 0-27.5-7.356-41.256-15.146-39.47-22.356-55.232-22.8-95.484 0-13.753 7.79-26.74 15.146-41.26 15.146z"/><path d="m448 192h-24c-41.4 0-109.7-65.256-185.827-54.725-10.453 1.449-8.323 17.282 2.195 15.85 66.488-9.214 129.617 48.185 175.632 54.322v99.874c-17.844 9.855-92.264 49.071-152 52.442v-127.763c0-10.578-16-10.591-16 0v127.763c-59.736-3.371-134.155-42.587-152-52.442v-99.893c24.244-3.331 53.38-20.748 85.92-35.48 9.634-4.362 3.05-18.944-6.6-14.576-33.938 15.368-66.137 34.628-87.32 34.628h-24a64 64 0 0 0 0 128h21.868c14.3 8.117 101.567 56 170.132 56s155.833-47.883 170.132-56h21.868a64 64 0 0 0 0-128zm-368 112h-16a48 48 0 0 1 0-96h16zm368 0h-16v-96h16a48 48 0 0 1 0 96z"/><path d="m112 224a8 8 0 0 0 16 0c0-10.577-16-10.592-16 0z"/><circle cx="120" cy="256" r="8"/><circle cx="120" cy="288" r="8"/><path d="m400 224c0-10.577-16-10.592-16 0 0 10.577 16 10.592 16 0z"/><path d="m208 160c10.577 0 10.592-16 0-16-10.577 0-10.592 16 0 16z"/><path d="m400 256c0-10.577-16-10.592-16 0s16 10.592 16 0z"/><path d="m392 296c10.577 0 10.592-16 0-16s-10.592 16 0 16z"/></g></g></svg>