<?xml version="1.0"?>
<svg xmlns="http://www.w3.org/2000/svg" viewBox="0 0 512 512" width="512" height="512"><g id="Virus_Quarantine" data-name="Virus Quarantine"><g id="Outline"><path d="M504,496H480V99.493c20.8,7.526,20.493,7.989,23,7.989,8.87,0,11.134-12.41,2.779-15.5C245-3.845,258.5-1.458,253.221.5l-57.8,21.41c-9.914,3.674-4.386,18.675,5.558,15L256,16.531,464,93.567V496H48V93.566l92.969-34.434c9.917-3.672,4.375-18.685-5.557-15L6.222,91.979c-9.923,3.673-4.378,18.678,5.556,15L32,99.493V496H8c-10.578,0-10.591,16,0,16H504C514.578,512,514.591,496,504,496Z"/><path d="M250.108,315.231c-6.309-9.185-8.392-21.37-22.339-25.247-14.6-4.053-22.581,6.127-39.129,14.037L172.9,276.16a24,24,0,0,0-41.789,23.613l26.565,47.014a25.99,25.99,0,0,0,22.677,13.222c11.263,0,15.156-5.747,49.265-24.009H432v16H216c-10.578,0-10.591,16,0,16h8V472c0,10.578,16,10.591,16,0V368h16V472c0,10.578,16,10.591,16,0V368h96V472c0,10.578,16,10.591,16,0V368h16V472c0,10.578,16,10.591,16,0V368h24a8,8,0,0,0,8-8V328c0-10.806-13.641-7.472-16-8V208a32.036,32.036,0,0,0-32-32H304a32.036,32.036,0,0,0-32,32v48c0,10.578,16,10.591,16,0V208a16.019,16.019,0,0,1,16-16h96a16.019,16.019,0,0,1,16,16V320H320V272c0-.266-.014-.528-.04-.788l45.422-41.292c7.826-7.118-2.925-18.962-10.764-11.84l-88,80c-7.842,7.132,3,18.89,10.764,11.84L304,285.722V320H251.092A7.992,7.992,0,0,0,250.108,315.231Zm-72.476,28.4c-6.986-1.943-5.213-5.2-32.594-51.73a8.008,8.008,0,0,1,6.953-11.938c7.313,0,6.4,4.566,26.655,38.892a8,8,0,0,0,10.9,3.03C216.6,307.41,217.94,303.867,223.484,305.4c4.863,1.352,5.391,5.628,8.758,10.738C180.3,345.489,182.954,345.111,177.632,343.632Z"/><path d="M125.1,240.722C106.812,253.755,96,276.586,96,304c1.311,69.431-3.075,75.275,4.305,88H80V264c0-10.578-16-10.591-16,0V432c0,10.806,13.641,7.472,16,8v32c0,10.578,16,10.591,16,0V440h48v32c0,10.578,16,10.591,16,0V440c2.168-.485,16,2.7,16-8V408h16v64c0,10.578,16,10.591,16,0V400a8,8,0,0,0-8-8H128a16.019,16.019,0,0,1-16-16v-8h32c10.578,0,10.591-16,0-16H112V304c0-27.695,13.231-49.311,34.53-56.41,7.378-2.463,5.47-7.583,5.47-39.59a16.019,16.019,0,0,1,16-16h32v16a24.028,24.028,0,0,1-24,24c-10.806,0-7.472,13.641-8,16,0,10.578,16,10.591,16,0v-.8A40.071,40.071,0,0,0,216,208V192c7.412,0,14.491-14.175,16.59-20.47,3.45-10.351,4.354-25.9-10.933-41.187a8,8,0,0,0-11.314,0C198.426,142.26,176.789,128,160,128,98.365,128,70.567,210.051,125.1,240.722ZM160,408v16H80V408Zm0-264c12.139,0,35.64,13.728,54.713,2.972,8.209,12.563,1.469,24.1-2.353,29.028H168a32.036,32.036,0,0,0-32,32v20.4C91.726,207.13,113.608,144,160,144Z"/><path d="M176,40c0-10.577-16-10.592-16,0C160,50.577,176,50.592,176,40Z"/></g></g></svg>
