<svg height="512" viewBox="0 0 512 512" width="512" xmlns="http://www.w3.org/2000/svg"><g id="Virus_Spread" data-name="Virus Spread"><g id="Outline"><path d="m479.845 366.677-47.845-9.569c-.079-9.181.186-9.661-.251-11.4a56.523 56.523 0 0 0 21.411-29.067c2.049-22.208 23.188-58.133-5.353-93.294-42.766-52.686-123.745-8.3-110.48 54.826 7.3 33.85 7.59 53.053 30.78 68.24-.2 1.259-.068 1.259-.107 10.692l-47.844 9.569a40.107 40.107 0 0 0 -32.156 39.226v98.1c0 10.576 16 10.592 16 0v-24h24v24c0 10.576 16 10.592 16 0v-68.333c0-10.577-16-10.593-16 0v28.333h-24v-58.1a24.063 24.063 0 0 1 19.294-23.533l28.966-5.794c3.193 31.06 35.276 52.124 66.127 39.344a47.081 47.081 0 0 0 29.368-39.341l28.952 5.791a24.064 24.064 0 0 1 19.293 23.533v58.1h-24v-28.333c0-10.577-16-10.593-16 0v68.333c0 10.576 16 10.592 16 0v-24h24v24c0 10.576 16 10.592 16 0v-98.1a40.107 40.107 0 0 0 -32.155-39.223zm-44.461-133.244a51.35 51.35 0 0 1 10.967 25.122c-18.96-10.222-30.333 1.112-46.351 1.112-16.278 0-28.331-11.793-47.5-.468 5.736-41.109 55.765-59.178 82.884-25.766zm-74.252 79.078-7.09-32.75a18.76 18.76 0 0 1 22.27-8.475c18.109 5.8 29.246 5.8 47.376 0a18.838 18.838 0 0 1 21.394 7.048l-7.4 34.177c-11.792 36.117-64.742 36.161-76.55 0zm16.245 81.779a31.188 31.188 0 0 1 -9.331-20.874l9.523-1.9c9.306-1.861 5.7-13.274 6.431-17.922a58.055 58.055 0 0 0 32-.347c.769 5.007-2.913 16.4 6.431 18.269l9.521 1.9c-1.344 27.208-34.93 40.518-54.575 20.874z"/><path d="m164.778 371.533-44.778-9.95v-7.689c32.184-18 22.2-52.194 24-73.894a8 8 0 0 0 -8-8h-80a8 8 0 0 0 -8 8c1.789 21.582-8.153 55.91 24 73.894v7.689l-44.778 9.95a34.557 34.557 0 0 0 -27.222 33.936v98.531c0 10.576 16 10.592 16 0v-40h16v40c0 10.576 16 10.592 16 0v-68.333c0-10.577-16-10.593-16 0v12.333h-16v-42.531a18.653 18.653 0 0 1 14.693-18.317l25.307-5.623c.418.507-4.66 23.244 36.731 41.773a8 8 0 0 0 6.538 0c40.786-18.259 36.453-41.435 36.731-41.773l25.307 5.623a18.653 18.653 0 0 1 14.693 18.317v42.531h-16v-12.333c0-10.577-16-10.593-16 0v68.333c0 10.576 16 10.592 16 0v-40h16v40c0 10.576 16 10.592 16 0v-98.531a34.557 34.557 0 0 0 -27.222-33.936zm-100.778-59.533v-24h64v24c0 42.705-64 42.628-64 0zm32 95.118c-30.943-15.918-22.714-26.861-24-29.145 4.27-1.661 16-.7 16-9.973v-8.625a51.529 51.529 0 0 0 16 0v8.625c0 9.3 11.562 8.247 16 9.973 0 0 7.008 13.195-24 29.145z"/><path d="m40 352c10.576 0 10.592-16 0-16a16.019 16.019 0 0 1 -16-16v-32a72 72 0 0 1 144 0v32a16.019 16.019 0 0 1 -16 16c-10.576 0-10.592 16 0 16a32.036 32.036 0 0 0 32-32v-32a88 88 0 0 0 -176 0v32a32.036 32.036 0 0 0 32 32z"/><path d="m264 8c0-10.577-16-10.592-16 0s16 10.592 16 0z"/><path d="m256 240c10.577 0 10.592-16 0-16s-10.592 16 0 16z"/><path d="m208 304c0 10.577 16 10.592 16 0s-16-10.592-16 0z"/><path d="m168 160c-10.577 0-10.592 16 0 16 10.577 0 10.592-16 0-16z"/><path d="m344 72c10.577 0 10.592-16 0-16s-10.592 16 0 16z"/><path d="m248 120c-10.577 0-10.592 16 0 16s10.592-16 0-16z"/><path d="m256 96a8 8 0 0 0 -16 0c0 10.577 16 10.592 16 0z"/><path d="m280 120c0-10.577-16-10.592-16 0s16 10.592 16 0z"/><path d="m168 48c10.577 0 10.592-16 0-16-10.577 0-10.592 16 0 16z"/><path d="m248 200c0 10.576 16 10.592 16 0v-32.581a55.434 55.434 0 0 0 9.817-2.342l31.936 39.923c6.607 8.258 19.11-1.724 12.494-10l-29.878-37.348a56.359 56.359 0 0 0 6.416-5.317c30.685 15.021 29.875 15.665 33.209 15.665 8.429 0 11.091-11.4 3.584-15.157l-26.794-13.4a55.573 55.573 0 0 0 6.635-19.443h32.581c10.578 0 10.591-16 0-16h-32.581a55.47 55.47 0 0 0 -2.277-9.626l14.436-7.219c9.463-4.731 2.316-19.046-7.156-14.31l-14.454 7.227a56.438 56.438 0 0 0 -5.356-6.569l30.044-45.065c5.868-8.8-7.439-17.69-13.312-8.875l-29.323 43.983a55.562 55.562 0 0 0 -20.021-6.965v-16.581c0-10.576-16-10.592-16 0v16.581c-1.517.218-3.012.5-4.488.84l-20.5-37.276c-5.1-9.269-19.125-1.571-14.02 7.71l19.476 35.411a56.154 56.154 0 0 0 -6.057 3.958c-1.5-2.019-1.056-1.068-25.971-17.88-8.8-5.871-17.689 7.437-8.875 13.312l23.65 15.767a56.145 56.145 0 0 0 -4.9 7.79l-10.737-5.368c-9.46-4.728-16.63 9.574-7.156 14.31l12.589 6.294c-.162.844-.307 1.694-.43 2.551h-32.581c-10.576 0-10.592 16 0 16h32.581a55.507 55.507 0 0 0 3.855 13.838l-16.943 11.552c-8.8 6 .354 19.123 9.014 13.22l16.244-11.076a56.488 56.488 0 0 0 8.573 8.389l-20.088 31.805c-5.646 8.941 7.872 17.5 13.528 8.544l20.4-32.307a55.489 55.489 0 0 0 12.836 3.454zm-32-88a40 40 0 1 1 40 40 40.045 40.045 0 0 1 -40-40z"/><path d="m317.715 309.593a8.01 8.01 0 0 0 -.058-11.25l-24-24c-7.479-7.476-18.805 3.823-11.314 11.314l10.343 10.343h-44.686c-10.576 0-10.592 16 0 16h44.686l-10.343 10.343a8.009 8.009 0 0 0 5.657 13.657c4.005 0 3.887.043 29.715-26.407z"/></g></g></svg>