<svg height="512" viewBox="0 0 512 512" width="512" xmlns="http://www.w3.org/2000/svg"><g id="Wash_Hands_With_Alcohol_Gel" data-name="Wash Hands With Alcohol Gel"><g id="Outline"><path d="m254.253 384.19c-10.322 2.3-6.871 17.916 3.472 15.62 74.267-16.874 72.764-15.27 75.646-17.89 90.214-83.221 90.459-79.229 90.615-85.73.21-8.858-17.967-18.131-32-18.131-18.71 0-18.037 4.931-83.141 50.354l-43.536 7.256c-24.633-12.725-137.32-67.655-137.32-39.669a8 8 0 0 0 8 8c28.527 0 99.381 33.985 124.276 47.08 4.188 2.205 3.5.511 53.04-7.188 2.908-.487 60.241-42.135 60.341-42.236a25.953 25.953 0 0 1 29.714-4.987l-79.18 71.982z"/><path d="m451.329 375.674c-10.355 2.219-6.992 17.869 3.354 15.644a38.2 38.2 0 0 1 36.17 11.554l-124.7 29.341 3.664 15.574c138.277-33.668 138.3-29.754 141.412-36.393 5.15-10.994-23.481-43.536-59.9-35.72z"/><path d="m218.927 294.2c5.773 4.717 16.636 13.012 32.287 24.656 8.487 6.311 18.048-6.515 9.55-12.838-38.544-28.674-54.593-46.269-98.986-56.458a8 8 0 0 0 -9.587 6.007c-3.666 15.974 25.026 4.553 66.736 38.633z"/><path d="m7.994 280c6.55 0 53-15.877 88.646-18.79 10.535-.862 9.254-16.813-1.3-15.947-28.164 2.3-37.409 6.108-89.244 18.965a8 8 0 0 0 1.898 15.772z"/><path d="m418.52 445.743c-10.034-3.335-15.109 11.83-5.061 15.18 15.31 6.5 29.975 5.716 36.053 20.387a23.023 23.023 0 0 1 1.428 12.674l-158.676-50.776c95.206-43.282 55.966-23.27 199.489-100.149 17.932-9.561-26.049-48.862-67.119-28.326-9.463 4.732-2.315 19.049 7.156 14.311a39.919 39.919 0 0 1 43.179 4.833l-110.521 58.945-86.191 39.178h-44.457l-166.372-79.223c-2.9-1.381.217-.506-59.428-.777-10.576 0-10.592 16 0 16h54.181c176.4 83.691 166.383 80 169.808 80h22.752l198.81 63.619c13.2 4.231 16.4-22.779 10.743-36.432-9.66-23.317-32.994-23.587-45.774-29.444z"/><path d="m135.989 248c0-10.577-16-10.592-16 0s16 10.592 16 0z"/><path d="m416 200c-10.577 0-10.592 16 0 16s10.592-16 0-16z"/><path d="m160 8c0-10.577-16-10.592-16 0s16 10.592 16 0z"/><path d="m48 392v112c0 10.578 16 10.591 16 0v-112c0-10.578-16-10.591-16 0z"/><path d="m64 232a40.045 40.045 0 0 1 40-40h144a40.045 40.045 0 0 1 40 40v64c0 10.578 16 10.591 16 0v-64a56.078 56.078 0 0 0 -48-55.419v-40.581a8 8 0 0 0 -8-8h-40v-80h93.627c42.553 42.057 26.761 41.589 64.054 5.633a8 8 0 0 0 .047-11.218c-40.27-40.123-38.765-42.415-44.728-42.415h-137c-10.576 0-10.592 16 0 16h133.627l31.153 31.952-12.532 12.638c-25.379-24.942-25.364-28.59-31.248-28.59h-185c-10.588 0-10.575-16 0-16s10.592-16 0-16a24 24 0 0 0 0 48h24v80h-40a8 8 0 0 0 -8 8v40.581a56.078 56.078 0 0 0 -48 55.419c0 10.578 16 10.591 16 0zm96-184h32v80h-32zm-48 96h128v32h-128z"/><path d="m288 488v16c0 10.578 16 10.591 16 0v-16c0-10.578-16-10.591-16 0z"/><path d="m394.762 236.777c9.956-3.543 4.615-18.631-5.364-15.074a40.016 40.016 0 0 1 -53.398-37.703c0-15.36 22.415-50.886 39.972-74.712 11.377 15.515 34.65 49 39.3 69.289 2.363 10.308 17.964 6.751 15.6-3.575-6.972-30.394-46.872-81.753-48.565-83.925a8 8 0 0 0 -12.613 0c-5.087 6.516-49.694 64.482-49.694 92.923 0 39.2 38.875 65.55 74.762 52.777z"/><path d="m376 200c10.806 0 7.472-13.641 8-16 2.168-.485 16 2.7 16-8 0-10.806-13.641-7.472-16-8v-8c0-10.578-16-10.591-16 0v8c-2.168.485-16-2.7-16 8 0 10.806 13.641 7.472 16 8 .485 2.168-2.7 16 8 16z"/></g></g></svg>