<svg height="512" viewBox="0 0 512 512" width="512" xmlns="http://www.w3.org/2000/svg"><g id="Wash_Hands_With_Soap" data-name="Wash Hands With Soap"><g id="Outline"><path d="m509.815 432.52-68-68c-7.478-7.476-18.8 3.822-11.314 11.314 70.362 69.117 67.389 70.343 73.657 70.343a8.009 8.009 0 0 0 5.657-13.657z"/><path d="m102.64 206.364-22.628-22.629a16.018 16.018 0 0 1 0-22.627 16.01 16.01 0 0 1 22.627 0c7.479 7.477 18.8-3.822 11.314-11.314l-19.799-19.794c-10.237-10.234-2.6-27.3 11.3-27.312 10.53.013 14.345 9.175 23.191 16.5 7.8 6.46 17.894-4.685 10.76-11.819-10.255-10.255-2.577-27.3 11.3-27.312 5.3.006 7.09.007 20.625 13.59 7.463 7.493 18.812-3.79 11.334-11.292-14.114-14.165-20.019-18.285-31.959-18.3-15.74.017-28.258 10.855-31.361 25.77-31.866-15.804-61.953 26.035-36.504 51.485l.208.208c-23.489 6.249-31.877 36-14.35 53.532l3 3c-22.795 5.966-32.315 35.567-14.316 53.566l18.039 18.039c7.378 7.375 18.9-3.73 11.314-11.314l-18.035-18.041c-14.872-14.869 7.686-37.568 22.627-22.627 7.478 7.482 18.802-3.82 11.313-11.309z"/><path d="m333.657 460.008c-7.479-7.476-18.8 3.823-11.314 11.314 38.866 37.683 37.707 40.343 43.657 40.343a8.009 8.009 0 0 0 5.657-13.657z"/><path d="m446.617 323.617c18.069-18.069 8.4-47.616-14.318-53.563l3.011-3.011c17.346-17.365 9.4-47.227-14.387-53.5l.234-.233c25.375-25.377-4.546-67.34-36.507-51.486-3.128-15-15.7-25.747-31.379-25.762-21.183.024-18.95 8.14-113.59 100.776 1.439-16.273 1.832-37.109-3.523-49.365-7.095-16.2-19.524-37.238-45.46-32.964a8 8 0 0 0 -6.698 7.891v32.23c-34.5 76.805-66.53 119.176-57.187 177.31l-30.633 31.107a8.009 8.009 0 0 0 5.7 13.613c5.971 0 5.175-3.046 39.311-36.516 6.378-6.478-3.606-9.236 2.219-49.727 5.59-38.917 56.59-123.174 56.59-134.077v-26.225c7.313 1.055 14.124 6.928 21.5 23.768 5.8 13.271 2.172 46.323-.14 60.835l-15.16 15.16c-7.476 7.477 3.822 18.8 11.314 11.314 132.57-132.577 126.14-129.122 135.758-129.132 13.882.013 21.576 16.965 11.28 27.348l-98.952 98.955c-7.476 7.478 3.822 18.805 11.314 11.315 119.908-119.641 112.364-114.985 121.609-115 13.975.019 21.532 17.1 11.323 27.315-56.577 56.586-88.386 88.389-110.308 110.308a8.007 8.007 0 0 0 3.382 13.328c6.015 1.77-.687 6.627 98.551-92.625a16 16 0 0 1 22.526 22.726c-28.77 28.767-61.721 61.72-90.514 90.513-7.477 7.478 3.821 18.8 11.313 11.315.1-.1 71.62-71.618 67.885-67.883 15.119-15.119 37.4 7.856 22.626 22.626l-96.17 96.17c-36 36-103.871 58.609-107.481 62.22l-29.31 29.321a8.009 8.009 0 0 0 5.654 13.658c5.857 0 5.534-3.349 33.77-30.466 14.385-5.385 77.141-31.882 108.677-63.417zm-211.636 145.083a5.466 5.466 0 0 1 .748-.188c-.252.047-.502.109-.748.188z"/><path d="m51.3 448.627-49 49.76a8.01 8.01 0 0 0 5.7 13.613c6.305 0 5.571-3.471 54.7-52.146a8 8 0 1 0 -11.4-11.227z"/><path d="m252 72a36 36 0 1 0 -36-36 36.04 36.04 0 0 0 36 36zm0-56a20 20 0 1 1 -20 20 20.023 20.023 0 0 1 20-20z"/><path d="m36 72a36 36 0 1 0 -36-36 36.04 36.04 0 0 0 36 36zm0-56a20 20 0 1 1 -20 20 20.023 20.023 0 0 1 20-20z"/><path d="m120 48a24 24 0 1 0 -24-24 24.027 24.027 0 0 0 24 24zm8-24c0 10.588-16 10.575-16 0s16-10.575 16 0z"/><path d="m24 152a24 24 0 1 0 -24-24 24.027 24.027 0 0 0 24 24zm0-32c10.588 0 10.575 16 0 16s-10.575-16 0-16z"/><path d="m476 72a36 36 0 1 0 -36-36 36.04 36.04 0 0 0 36 36zm0-56a20 20 0 1 1 -20 20 20.023 20.023 0 0 1 20-20z"/><path d="m137.463 180.788a56.08 56.08 0 0 0 -26.886 77.6 56 56 0 0 0 -5.239 68.637c5.815 8.746 19.235.033 13.324-8.859a39.994 39.994 0 0 1 7.289-52.451 8 8 0 0 0 1.327-10.672 40.019 40.019 0 0 1 16.022-59.337c3.45 6.067 7.476 12.294 12.872 12.294a8.013 8.013 0 0 0 5.966-13.326c-28.87-32.356 7.728-80.971 46.659-62.919a8 8 0 0 0 10.623-3.891c5.287-11.4-15.55-15.808-27.424-15.808-35.939 0-62.748 33.621-54.533 68.732z"/><path d="m262.673 104.61a40.037 40.037 0 0 1 33.327 39.446c0 10.578 16 10.591 16 0a55.851 55.851 0 0 0 -16.339-39.517c9.477-12.981 22.158-16.894 38.151-16.1 20.2 2.977 22.11 15.563 29.969 15.563a7.972 7.972 0 0 0 5.332-2.039c9.906-8.865-10.2-22.142-21.4-26.358 21.648-22.251 62.356-10.5 67.68 21.129a55.865 55.865 0 0 0 -28.729 13.585 8.01 8.01 0 0 0 5.336 13.959c6.647 0 9.282-9.384 26.325-11.816 3 2.945 19.7 5.547 27.15 25.666a39.875 39.875 0 0 1 -2.795 33.872c-5.286 9.166 8.57 17.167 13.861 7.992a56.059 56.059 0 0 0 -24.6-78.569c-2.281-53.555-71.969-73.072-101.915-29.373a56.524 56.524 0 0 0 -47.162 22.875c-30.977-16.956-31.473 7.786-20.191 9.685z"/><circle cx="80" cy="432" r="8"/><path d="m232 112c10.577 0 10.592-16 0-16-10.577 0-10.592 16 0 16z"/></g></g></svg>