<svg height="512" viewBox="0 0 512 512" width="512" xmlns="http://www.w3.org/2000/svg"><g id="Wash_Hands_With_Water" data-name="Wash Hands With Water"><g id="Outline"><path d="m8 288c96.356-2.407 34.368 10.14 92.793-33.595 6.53-4.886 17.742-10.938 33.324-17.986 9.636-4.359 3.059-18.94-6.594-14.578-25.886 11.71-49.735 25.2-67.8 50.159h-51.723c-10.576 0-10.592 16 0 16z"/><path d="m347.752 416h4.248c24.777 0 39.9-26.96 27.706-48h.294c35.9 0 44.4-50.832 10.588-62.224 8.228-12.551 7.314-29.1-3.967-40.409-15-14.967-19.183-7.641-151.585-9.054 12.527-10.491 27.54-24.947 32.414-37.4 6.95-17.754 12.011-40.313-10.65-57.313a8 8 0 0 0 -10.458.742l-22.665 22.668c-4.862 1.632-18.99 6.429-36.276 12.781-9.923 3.645-4.422 18.678 5.518 15.018 52.748-19.379 31.234-6.651 59.36-33.775 6.824 7.861 6.695 17.627.272 34.05-5.278 13.481-31.218 34.289-43.117 42.916h-21.434c-10.576 0-10.592 16 0 16h23.931c145.888 2.381 154.032-4.64 163.376 4.681 9.851 9.873 3.15 27.319-11.307 27.319h-140c-10.576 0-10.592 16 0 16 169.159.183 160.746-1.866 167.307 4.681 9.851 9.873 3.15 27.319-11.307 27.319h-156a8 8 0 0 0 0 16h128a16 16 0 0 1 0 32h-128c-10.576 0-10.592 16 0 16 97.007 1.551 99.076-3.531 107.307 4.681 9.851 9.873 3.15 27.319-11.307 27.319h-136c-50.909 0-114.882-32-120-32h-56c-10.576 0-10.592 16 0 16h54.307c13.969 6.354 77.145 32 121.693 32h136c25.532 0 39.622-27.715 27.752-48zm-279.99.94a5.521 5.521 0 0 1 .658.392c-.213-.142-.433-.272-.658-.392z"/><path d="m5.441 197.5c81.892 27.484 78.075 26.752 80.559 26.752 9.034 0 11.078-12.706 2.558-15.582l-78-26.33a8 8 0 1 0 -5.117 15.16z"/><path d="m490 327.32c-57.584-19.286-55.158-18.99-57.569-18.99-9.123 0-11.082 12.932-2.369 15.641l54.82 18.509a15.987 15.987 0 0 1 4.2 28.146c-8.892 6.383-12.372 2.863-58.86-12.835-10.026-3.395-15.15 11.772-5.119 15.158l44.42 15c11.84 4.517 26.059 5.63 26.059 20.28a16.014 16.014 0 0 1 -21.131 15.16c-13.32-4.5-53.085-17.926-68.225-23.037-11.631-3.877-15.722 11.577-6.01 14.858l.816.275.1.038c1.6.557 34.5 11.638 41.746 14.1 13.327 4.567 14.63 23.173 1.909 29.473-10.205 5.053-14.132-1.3-68.678-18.241-10.031-3.388-15.142 11.777-5.115 15.16l26.2 8.839a16 16 0 0 1 -10.3 30.3l-49.52-16.719c-10.02-3.391-15.154 11.77-5.118 15.158 49.1 16.04 50.736 18.405 59.732 18.405a32 32 0 0 0 31.372-38.307c2.733.771 7.252 3.083 14.363 3.081a32 32 0 0 0 31.309-38.321 31.721 31.721 0 0 0 29.194-4.223c16.778-12.046 18.645-37.981.873-51.1 20.392-15.493 15.269-47.579-9.099-55.808z"/><path d="m290.994 234.116c119.066-9.167 70.945 7.088 117.77-15.461 8.361 20.374-18.6 30.669-6.421 40.123a8 8 0 0 0 11.226-1.412c9.564-12.316 20.494-31.293 5.056-53.783a8 8 0 0 0 -10.146-2.642l-28.72 14.223c-9.474 0-52.316.1-89.993 3-10.538.812-9.349 16.741 1.228 15.952z"/><path d="m504 48h-80a40.071 40.071 0 0 0 -39.2 32h-48.359a72.107 72.107 0 0 1 71.559-64c10.576 0 10.592-16 0-16a88.118 88.118 0 0 0 -87.633 80c-2.3.5-16.367-2.759-16.367 8a8 8 0 0 0 8 8h96c10.576 0 10.592-16 0-16h-6.624a24.039 24.039 0 0 1 22.624-16h80c10.576 0 10.592-16 0-16z"/><circle cx="392" cy="120" r="8"/><path d="m448 8c0-10.577-16-10.592-16 0s16 10.592 16 0z"/><path d="m160 224c10.577 0 10.592-16 0-16-10.577 0-10.592 16 0 16z"/><path d="m352 120c0 10.577 16 10.592 16 0 0-10.577-16-10.592-16 0z"/><path d="m320 120c0 10.577 16 10.592 16 0 0-4.418-16-10.592-16 0z"/><path d="m376 144a8 8 0 0 0 -8 8c0 10.577 16 10.592 16 0a8 8 0 0 0 -8-8z"/><path d="m400 152c0 10.577 16 10.592 16 0 0-10.577-16-10.592-16 0z"/><path d="m344 144c-10.577 0-10.592 16 0 16s10.592-16 0-16z"/><path d="m312 144c-10.577 0-10.592 16 0 16s10.592-16 0-16z"/><path d="m368 184c0-10.577-16-10.592-16 0 0 10.577 16 10.592 16 0z"/><path d="m392 192c10.577 0 10.592-16 0-16s-10.592 16 0 16z"/><path d="m424 192c10.577 0 10.592-16 0-16s-10.592 16 0 16z"/><path d="m336 184c0-10.577-16-10.592-16 0 0 10.577 16 10.592 16 0z"/><path d="m296 192c10.577 0 10.592-16 0-16s-10.592 16 0 16z"/><path d="m472 16h32c10.576 0 10.592-16 0-16h-32c-10.576 0-10.592 16 0 16z"/></g></g></svg>